<?xml version="1.0" standalone="no"?>
<!DOCTYPE svg PUBLIC "-//W3C//DTD SVG 1.1//EN" "http://www.w3.org/Graphics/SVG/1.1/DTD/svg11.dtd" >
<svg xmlns="http://www.w3.org/2000/svg" xmlns:xlink="http://www.w3.org/1999/xlink" version="1.1">
<metadata>
Created by FontForge 20201107 at Sun Jan 12 22:14:45 2020
 By Jimmy Wärting
Copyright \(c\) 2020 by MadeType. All rights reserved.
</metadata>
<defs>
<font id="MADEMirage-Thin" horiz-adv-x="213" >
  <font-face 
    font-family="MADE Mirage"
    font-weight="250"
    font-stretch="normal"
    units-per-em="1000"
    panose-1="2 0 5 3 0 0 0 2 0 4"
    ascent="800"
    descent="-200"
    x-height="473"
    cap-height="700"
    bbox="-105 -279 1235 958"
    underline-thickness="50"
    underline-position="-100"
    unicode-range="U+0020-F6C3"
  />
<missing-glyph horiz-adv-x="200" 
 />
    <glyph glyph-name=".notdef" horiz-adv-x="200" 
 />
    <glyph glyph-name="B" unicode="B" horiz-adv-x="616" 
d="M339 373c129 -8 232 -68 232 -182c0 -134 -122 -191 -285 -191h-221v9c32 3 35 19 35 53v577c0 34 -3 50 -35 52v9h164c163 0 271 -50 271 -169c0 -87 -68 -137 -161 -158zM134 688v-314h102c139 0 228 48 228 157c0 112 -82 157 -242 157h-88zM280 13
c160 0 255 57 255 178c0 111 -92 171 -229 171h-172v-349h146z" />
    <glyph glyph-name="C" unicode="C" horiz-adv-x="707" 
d="M648 167h9l-17 -99c-63 -50 -139 -78 -234 -78c-197 0 -361 151 -361 360c0 210 151 360 348 360c94 0 188 -35 248 -84v-92h-8c-21 113 -129 164 -240 164c-168 0 -312 -131 -312 -348c0 -216 157 -347 325 -347c111 0 210 52 242 164z" />
    <glyph glyph-name="D" unicode="D" horiz-adv-x="717" 
d="M285 700c201 0 387 -106 387 -350c0 -243 -186 -350 -387 -350h-220v9c33 3 35 19 35 53v577c0 34 -2 50 -35 52v9h220zM279 13c204 0 357 106 357 337c0 232 -153 338 -357 338h-145v-675h145z" />
    <glyph glyph-name="E" unicode="E" horiz-adv-x="585" 
d="M526 97h9l-19 -97h-451v9c33 3 35 19 35 53v577c0 34 -2 50 -35 52v9h432l18 -97h-9c-15 49 -38 85 -110 85h-262v-324h196c58 0 68 17 73 48h9v-109h-9c-5 32 -15 48 -73 48h-196v-338h281c73 0 96 36 111 84z" />
    <glyph glyph-name="F" unicode="F" horiz-adv-x="548" 
d="M490 700l18 -97h-9c-15 49 -38 85 -110 85h-256v-344h193c59 0 68 17 73 49h9v-109h-9c-5 31 -14 48 -73 48h-193v-270c0 -34 3 -50 35 -53v-9h-103v9c32 3 34 19 34 53v577c0 34 -2 50 -34 52v9h425z" />
    <glyph glyph-name="G" unicode="G" horiz-adv-x="732" 
d="M590 281h102v-9c-32 -3 -34 -19 -34 -53v-143c-62 -55 -157 -86 -252 -86c-197 0 -361 151 -361 360c0 210 151 360 348 360c94 0 188 -35 248 -84v-92h-8c-21 113 -129 164 -240 164c-168 0 -312 -131 -312 -348c0 -216 157 -347 325 -347c94 0 179 40 218 84v132
c0 34 -2 50 -34 53v9z" />
    <glyph glyph-name="H" unicode="H" horiz-adv-x="735" 
d="M670 691c-32 -2 -34 -18 -34 -52v-577c0 -34 2 -50 34 -53v-9h-103v9c32 3 35 19 35 53v282h-469v-282c0 -34 2 -50 35 -53v-9h-103v9c32 3 34 19 34 53v577c0 34 -2 50 -34 52v9h103v-9c-33 -2 -35 -18 -35 -52v-283h469v283c0 34 -3 50 -35 52v9h103v-9z" />
    <glyph glyph-name="I" unicode="I" horiz-adv-x="233" 
d="M168 691c-32 -2 -35 -18 -35 -52v-577c0 -34 3 -50 35 -53v-9h-103v9c32 3 34 19 34 53v577c0 34 -2 50 -34 52v9h103v-9z" />
    <glyph glyph-name="J" unicode="J" horiz-adv-x="457" 
d="M304 700h103v-9c-32 -2 -34 -18 -34 -52v-428c0 -143 -57 -221 -181 -221c-77 0 -140 51 -156 93c-8 21 -7 39 6 47c9 5 22 3 27 -5c8 -12 1 -22 1 -35c2 -33 40 -87 122 -87c107 0 146 88 146 210v426c0 34 -2 50 -34 52v9z" />
    <glyph glyph-name="K" unicode="K" horiz-adv-x="674" 
d="M590 62c17 -26 34 -46 64 -53v-9h-113v9c27 3 32 21 11 53l-240 362l-179 -190v-172c0 -34 3 -50 35 -53v-9h-103v9c32 3 34 19 34 53v576c0 35 -2 51 -34 53v9h103v-9c-32 -2 -35 -18 -35 -53v-384l367 386c27 28 35 47 13 51v9h74v-9c-29 -7 -39 -18 -66 -46l-186 -197
z" />
    <glyph glyph-name="L" unicode="L" horiz-adv-x="569" 
d="M525 97h9l-18 -97h-451v9c32 3 34 19 34 53v577c0 34 -2 50 -34 52v9h103v-9c-33 -2 -35 -18 -35 -52v-626h282c72 0 95 36 110 84z" />
    <glyph glyph-name="M" unicode="M" horiz-adv-x="877" 
d="M799 62c7 -31 16 -49 43 -53v-9h-98v9c27 4 30 19 23 53l-118 582l-216 -644h-13l-240 646l-90 -584c-6 -35 -2 -49 25 -53v-9h-80v9c31 4 37 19 43 53l88 571c5 33 6 56 -26 58v9h54l243 -651l219 651h56v-9c-32 -2 -32 -25 -27 -59z" />
    <glyph glyph-name="N" unicode="N" horiz-adv-x="710" 
d="M570 700h80v-9c-32 -2 -34 -18 -34 -52v-639h-13l-492 641v-579c0 -34 3 -50 35 -53v-9h-81v9c32 3 34 19 34 53v577c0 34 -2 50 -34 52v9h48l491 -641v580c0 34 -2 50 -34 52v9z" />
    <glyph glyph-name="O" unicode="O" horiz-adv-x="810" 
d="M405 710c202 0 360 -149 360 -360c0 -210 -158 -360 -360 -360s-360 150 -360 360c0 211 158 360 360 360zM405 3c165 0 323 119 323 347c0 229 -158 348 -323 348s-323 -119 -323 -348c0 -228 158 -347 323 -347z" />
    <glyph glyph-name="P" unicode="P" horiz-adv-x="564" 
d="M261 700c163 0 258 -84 258 -208s-95 -208 -258 -208h-127v-222c0 -34 2 -50 34 -53v-9h-103v9c32 3 34 19 34 53v576c0 35 -2 51 -34 53v9h196zM255 296c159 0 228 79 228 196s-69 196 -228 196h-121v-392h121z" />
    <glyph glyph-name="Q" unicode="Q" horiz-adv-x="810" 
d="M836 -71l6 -6c-43 -85 -244 -85 -445 67c-199 3 -352 152 -352 360c0 210 157 360 359 360c203 0 360 -150 360 -360c0 -206 -151 -354 -347 -360c85 -51 299 -150 419 -61zM81 350c0 -228 158 -348 323 -348s323 120 323 348s-158 348 -323 348s-323 -120 -323 -348z
" />
    <glyph glyph-name="R" unicode="R" horiz-adv-x="608" 
d="M522 62c19 -26 37 -46 66 -53v-9h-58l-227 306c-14 -1 -28 -1 -42 -1h-128v-243c0 -34 2 -50 34 -53v-9h-102v9c32 3 34 19 34 53v576c0 35 -2 51 -34 53v9h196c163 0 264 -74 264 -198c0 -103 -70 -171 -188 -191zM254 317c160 0 236 68 236 185s-76 186 -236 186h-121
v-371h121z" />
    <glyph glyph-name="S" unicode="S" horiz-adv-x="581" 
d="M129 573c-40 -216 448 -184 398 -422c-22 -100 -98 -161 -228 -161c-91 0 -185 26 -249 74v99h8c32 -118 135 -156 241 -161c93 -4 180 41 197 120c56 253 -457 187 -396 456c18 78 103 132 196 132c73 0 139 -26 203 -75v-86h-8c-31 105 -100 149 -195 149
c-81 0 -151 -41 -167 -125z" />
    <glyph glyph-name="T" unicode="T" horiz-adv-x="640" 
d="M581 700l19 -97h-9c-15 48 -38 84 -110 84h-144v-626c0 -34 2 -50 34 -52v-9h-103v9c33 2 35 18 35 52v626h-144c-72 0 -95 -36 -110 -84h-9l18 97h523z" />
    <glyph glyph-name="U" unicode="U" horiz-adv-x="720" 
d="M579 700h81v-9c-32 -3 -34 -19 -34 -53v-375c0 -116 -61 -273 -247 -273c-166 0 -280 97 -280 273v375c0 34 -2 50 -34 53v9h103v-9c-32 -3 -34 -19 -34 -53v-375c0 -165 111 -255 250 -255c173 0 230 149 230 255v375c0 34 -3 50 -35 53v9z" />
    <glyph glyph-name="V" unicode="V" horiz-adv-x="666" 
d="M564 700h82v-9c-26 -5 -36 -17 -48 -47l-244 -644h-14l-268 638c-12 30 -24 49 -52 53v9h109v-9c-27 -4 -34 -20 -20 -53l250 -594l224 594c12 32 8 49 -19 53v9z" />
    <glyph glyph-name="W" unicode="W" horiz-adv-x="993" 
d="M891 700h82v-9c-28 -5 -40 -20 -50 -53l-202 -638h-12l-212 639l-192 -639h-13l-219 638c-11 31 -25 49 -53 53v9h109v-9c-25 -4 -33 -19 -25 -47l203 -596l196 652h9l215 -645l183 583c10 32 8 49 -19 53v9z" />
    <glyph glyph-name="X" unicode="X" horiz-adv-x="637" 
d="M547 47c17 -26 32 -34 55 -38v-9h-106v9c24 3 26 16 13 36l-204 307l-198 -299c-17 -26 -16 -42 10 -44v-9h-82v9c28 4 46 23 66 52l197 300l-193 291c-18 26 -33 35 -55 39v9h104v-9c-24 -3 -27 -17 -14 -37l179 -267l171 259c18 27 17 42 -10 45v9h83v-9
c-28 -5 -46 -23 -66 -53l-172 -260z" />
    <glyph glyph-name="Y" unicode="Y" horiz-adv-x="593" 
d="M489 700h84v-9c-28 -5 -41 -16 -58 -47l-194 -359v-224c0 -34 3 -50 35 -52v-9h-103v9c32 2 34 18 34 52v220l-211 361c-17 29 -28 45 -56 49v9h106v-9c-23 -2 -33 -16 -15 -47l204 -348v0l188 348c13 25 13 43 -14 47v9z" />
    <glyph glyph-name="Z" unicode="Z" horiz-adv-x="606" 
d="M552 97h9l-18 -97h-498v12l454 675h-314c-72 0 -95 -36 -111 -84h-9l19 97h453v-13l-454 -675h359c72 0 95 36 110 85z" />
    <glyph glyph-name="a" unicode="a" horiz-adv-x="480" 
d="M456 21l4 -6c-6 -11 -20 -25 -41 -25c-32 0 -51 17 -51 56v64c-17 -59 -78 -120 -171 -120c-85 0 -151 45 -156 118c-6 88 60 148 151 156c98 8 176 13 176 13v51c0 110 -65 144 -142 144c-50 0 -105 -28 -104 -78c1 -21 -10 -35 -30 -30c-19 5 -18 27 -8 47
c24 48 75 69 139 72c88 3 179 -33 179 -166v-275c0 -39 38 -42 54 -21zM224 8c95 8 144 87 144 168v90c0 0 -69 -3 -149 -12c-92 -10 -153 -58 -147 -141c6 -77 73 -112 152 -105z" />
    <glyph glyph-name="b" unicode="b" horiz-adv-x="560" 
d="M304 483c129 0 221 -97 221 -247c0 -149 -92 -246 -221 -246c-83 0 -152 48 -187 127l-23 -117h-9v638c0 34 -2 50 -35 53v9l60 19h9v-360c35 77 103 124 185 124zM304 1c103 0 185 87 185 235s-82 235 -185 235c-102 0 -185 -90 -185 -235c0 -144 83 -235 185 -235z" />
    <glyph glyph-name="c" unicode="c" horiz-adv-x="497" 
d="M448 98l9 -7c-41 -60 -96 -101 -181 -101c-132 0 -236 96 -236 250s106 243 231 243c78 0 145 -31 168 -78c9 -18 6 -40 -9 -45c-17 -6 -34 5 -33 30c2 47 -46 83 -122 82c-102 -1 -200 -85 -200 -232s91 -217 184 -229c88 -11 152 30 189 87z" />
    <glyph glyph-name="d" unicode="d" horiz-adv-x="569" 
d="M535 14l4 -5c-5 -8 -21 -19 -39 -19c-32 0 -53 17 -53 56v68c-35 -77 -104 -124 -185 -124c-129 0 -222 97 -222 246c0 150 93 247 222 247c81 0 150 -47 185 -124v279c0 34 -2 50 -34 53v9l59 19h9v-677c0 -37 31 -43 54 -28zM262 1c102 0 185 91 185 235
c0 145 -83 235 -185 235c-104 0 -185 -87 -185 -235s81 -235 185 -235z" />
    <glyph glyph-name="e" unicode="e" horiz-adv-x="505" 
d="M465 268h-389c-1 -9 -1 -18 -1 -28c0 -147 91 -217 184 -229c87 -11 154 29 191 86l9 -7c-41 -60 -98 -100 -183 -100c-133 0 -236 96 -236 250c0 153 95 243 220 243c160 0 205 -134 205 -213v-2zM264 472c-92 -1 -172 -69 -187 -191h355c-3 90 -47 191 -168 191z" />
    <glyph glyph-name="f" unicode="f" horiz-adv-x="306" 
d="M319 686c32 -22 32 -51 18 -61c-11 -6 -30 0 -31 26c-2 35 -39 54 -78 49c-73 -11 -71 -86 -71 -191v-36h139v-12h-139v-400c0 -34 2 -50 34 -52v-9h-103v9c32 2 35 18 35 52v400h-93v12h93v67c-4 89 13 166 114 170c35 2 63 -10 82 -24z" />
    <glyph glyph-name="g" unicode="g" horiz-adv-x="551" 
d="M288 50c138 0 243 -26 243 -121s-84 -192 -251 -192c-168 0 -261 73 -259 151c1 64 65 115 170 134c-72 6 -147 27 -138 88c7 52 80 67 125 71c-46 28 -75 75 -75 138c0 103 76 164 177 164c43 0 81 -10 111 -31c4 36 21 73 46 82c18 7 35 1 38 -13c2 -12 -4 -26 -26 -25
c-26 1 -46 -16 -50 -50c36 -28 58 -71 58 -127c0 -102 -75 -164 -177 -164c-34 0 -65 7 -92 20c-39 -3 -107 -15 -117 -53c-14 -54 62 -72 217 -72zM136 319c0 -99 64 -152 144 -152c81 0 144 53 144 152c0 100 -63 152 -144 152c-80 0 -144 -52 -144 -152zM286 -249
c88 0 213 47 219 154c6 106 -111 114 -242 114h-26c-67 -5 -186 -32 -187 -133c-2 -116 151 -135 236 -135z" />
    <glyph glyph-name="h" unicode="h" horiz-adv-x="546" 
d="M472 61c0 -34 2 -50 34 -52v-9h-103v9c32 2 34 18 34 52v213c0 107 -43 197 -157 197c-76 0 -161 -65 -161 -145v-265c0 -34 2 -50 34 -52v-9h-103v9c32 2 35 18 35 52v577c0 34 -3 50 -35 53v9l60 19h9v-337c29 56 94 101 167 101c109 0 186 -64 186 -197v-225z" />
    <glyph glyph-name="i" unicode="i" 
d="M105 577c-18 0 -33 12 -33 32c0 21 15 33 33 33s33 -12 33 -33c0 -20 -15 -32 -33 -32zM129 61c0 -34 2 -50 34 -52v-9h-103v9c32 2 35 18 35 52v341c0 34 -3 50 -35 53v9l60 19h9v-422z" />
    <glyph glyph-name="j" unicode="j" horiz-adv-x="201" 
d="M108 577c-18 0 -33 12 -33 32c0 21 15 33 33 33s33 -12 33 -33c0 -20 -15 -32 -33 -32zM63 464l60 19h9v-477c0 -56 -1 -102 -5 -125c-9 -43 -40 -69 -89 -66c-35 2 -71 22 -90 60c-9 20 -11 39 1 46c9 5 19 4 25 -4s7 -15 6 -29c-1 -47 42 -64 71 -62c27 3 49 20 51 54
c1 30 -5 40 -5 133v389c0 34 -2 50 -34 53v9z" />
    <glyph glyph-name="k" unicode="k" horiz-adv-x="503" 
d="M421 62c22 -27 40 -45 62 -53v-9h-97v9c27 5 15 29 -5 53l-175 210l-87 -82v-128c0 -34 2 -50 34 -53v-9h-103v9c32 3 34 19 34 53v576c0 35 -2 51 -34 53v9l60 20h9v-515l225 209c28 27 39 47 17 51v9h75v-9c-23 -5 -38 -15 -62 -37l-145 -135z" />
    <glyph glyph-name="l" unicode="l" 
d="M129 61c0 -34 2 -50 34 -52v-9h-103v9c32 2 35 18 35 52v577c0 34 -3 50 -35 53v9l60 19h9v-658z" />
    <glyph glyph-name="m" unicode="m" horiz-adv-x="869" 
d="M785 61c0 -34 2 -50 34 -52v-9h-103v9c32 2 35 18 35 52v213c0 107 -34 197 -148 197c-76 0 -151 -65 -151 -145v-265c0 -34 2 -50 34 -52v-9h-103v9c32 2 34 18 34 52v213c0 107 -33 197 -148 197c-75 0 -151 -65 -151 -145v-265c0 -34 2 -50 35 -52v-9h-103v9
c32 2 34 18 34 52v341c0 34 -2 50 -34 53v9l59 19h9v-100c27 55 85 100 158 100c85 0 145 -40 167 -122c21 65 84 122 166 122c108 0 176 -64 176 -197v-225z" />
    <glyph glyph-name="n" unicode="n" horiz-adv-x="556" 
d="M472 61c0 -34 2 -50 34 -52v-9h-103v9c32 2 34 18 34 52v213c0 107 -43 197 -158 197c-75 0 -160 -65 -160 -145v-265c0 -34 2 -50 34 -52v-9h-103v9c32 2 35 18 35 52v341c0 34 -3 50 -35 53v9l60 19h9v-101c29 56 94 101 167 101c108 0 186 -64 186 -197v-225z" />
    <glyph glyph-name="o" unicode="o" horiz-adv-x="554" 
d="M270 483c130 0 234 -95 234 -247c0 -151 -104 -246 -234 -246c-131 0 -235 95 -235 246c0 152 104 247 235 247zM270 1c109 0 198 89 198 235s-89 235 -198 235c-110 0 -199 -89 -199 -235s89 -235 199 -235z" />
    <glyph glyph-name="p" unicode="p" horiz-adv-x="565" 
d="M294 483c129 0 221 -97 221 -247c0 -149 -92 -246 -221 -246c-82 0 -150 47 -185 124v-279c0 -34 2 -50 34 -53v-9h-103v9c33 3 35 19 35 53v567c0 34 -2 50 -35 53v9l60 19h9v-124c35 77 103 124 185 124zM294 2c103 0 185 86 185 234s-82 235 -185 235
c-102 0 -185 -90 -185 -235c0 -144 83 -234 185 -234z" />
    <glyph glyph-name="q" unicode="q" horiz-adv-x="560" 
d="M480 -165c0 -34 2 -50 35 -53v-9h-103v9c32 3 34 19 34 53v279c-35 -77 -103 -124 -185 -124c-129 0 -221 97 -221 246c0 150 92 247 221 247c83 0 152 -49 186 -127l24 117h9v-638zM261 2c102 0 185 90 185 234c0 145 -83 235 -185 235c-103 0 -185 -87 -185 -235
s82 -234 185 -234z" />
    <glyph glyph-name="r" unicode="r" horiz-adv-x="388" 
d="M363 433c9 -21 3 -40 -12 -44c-14 -3 -29 3 -29 28c-1 33 -27 56 -76 52c-63 -5 -127 -73 -127 -205v-203c0 -34 2 -50 34 -52v-9h-103v9c32 2 34 18 34 52v341c0 34 -2 50 -34 53v9l60 19h9v-124c23 74 70 123 142 124c44 2 88 -19 102 -50z" />
    <glyph glyph-name="s" unicode="s" horiz-adv-x="450" 
d="M100 407c-32 -100 65 -125 146 -154c80 -28 174 -60 149 -158c-19 -75 -92 -111 -186 -105c-59 4 -125 27 -169 58v75h7c21 -84 93 -115 164 -121c56 -4 134 8 156 80c26 88 -63 113 -135 137c-85 28 -192 64 -156 181c17 55 86 86 150 84c50 -1 106 -19 150 -53l1 -69
h-7c-23 84 -90 110 -151 110c-44 0 -104 -21 -119 -65z" />
    <glyph glyph-name="t" unicode="t" horiz-adv-x="328" 
d="M283 38l5 -5c-14 -19 -41 -43 -80 -43c-58 0 -99 35 -99 126v345h-79v12c73 6 100 33 102 118h12v-118h125v-12h-125v-345c0 -62 22 -95 55 -105c29 -8 62 1 84 27z" />
    <glyph glyph-name="u" unicode="u" horiz-adv-x="546" 
d="M452 61c0 -34 2 -50 34 -52v-9h-68v86c-25 -54 -78 -97 -158 -97c-108 0 -195 65 -195 198v215c0 34 -2 50 -35 53v9l60 19h9v-291c0 -107 53 -190 168 -190c83 0 151 64 151 144v256c0 34 -3 50 -35 53v9l60 19h9v-422z" />
    <glyph glyph-name="v" unicode="v" horiz-adv-x="492" 
d="M395 473h67v-9c-26 -2 -35 -18 -43 -39l-172 -425h-10l-181 421c-10 23 -18 40 -46 43v9h94v-9c-21 -2 -24 -17 -16 -36l165 -385l155 387c7 18 7 32 -13 34v9z" />
    <glyph glyph-name="w" unicode="w" horiz-adv-x="750" 
d="M653 473h67v-9c-27 -2 -36 -18 -45 -39l-161 -425h-12l-135 416l-152 -416h-11l-156 435c-7 16 -16 26 -38 29v9h94v-9c-21 -2 -26 -16 -19 -36l135 -383l155 428h6l138 -429l145 384c7 19 9 34 -11 36v9z" />
    <glyph glyph-name="x" unicode="x" horiz-adv-x="483" 
d="M393 51c15 -21 33 -39 60 -42v-9h-99v9c20 1 22 17 10 34l-140 195l-138 -192c-12 -17 -13 -35 7 -37v-9h-73v9c28 2 43 22 58 43l138 197l-124 172c-15 20 -33 40 -60 43v9h98v-9c-20 -1 -22 -17 -9 -34l115 -161l113 158c12 17 13 35 -7 37v9h74v-9
c-28 -2 -44 -22 -58 -43l-114 -163z" />
    <glyph glyph-name="y" unicode="y" horiz-adv-x="490" 
d="M393 473h67v-9c-26 -2 -34 -18 -43 -39l-171 -425c-66 -151 -103 -203 -167 -212c-24 -3 -56 1 -75 16c-16 14 -19 35 -5 45c15 9 30 -1 34 -20c4 -24 29 -30 56 -25c48 7 92 71 145 198l-179 419c-10 23 -19 40 -46 43v9h93v-9c-21 -2 -24 -17 -16 -36l165 -385l156 387
c7 18 6 32 -14 34v9z" />
    <glyph glyph-name="z" unicode="z" horiz-adv-x="467" 
d="M408 80h9l-13 -80h-364v12l318 449h-179c-72 0 -92 -20 -107 -68h-9l14 80h318v-12l-318 -449h225c72 0 91 20 106 68z" />
    <glyph glyph-name="one" unicode="1" horiz-adv-x="225" 
d="M135 61c0 -34 3 -50 35 -52v-9h-103v9c32 2 34 18 34 52v584h-41v9l66 46h9v-639z" />
    <glyph glyph-name="two" unicode="2" horiz-adv-x="530" 
d="M471 84h9l-13 -84h-417v9c190 193 349 315 364 500c9 112 -51 189 -162 189c-76 0 -137 -51 -136 -94c1 -13 0 -26 -8 -34c-7 -7 -25 -8 -32 4c-5 9 -4 19 4 38c19 44 78 98 172 98c124 0 209 -77 196 -201c-17 -169 -210 -333 -376 -491h275c76 0 109 21 124 66z" />
    <glyph glyph-name="three" unicode="3" horiz-adv-x="533" 
d="M287 374c124 -17 196 -85 196 -185c0 -118 -92 -199 -218 -199c-102 0 -185 54 -207 104c-9 19 -9 29 -4 38c8 13 25 13 33 5c10 -10 8 -24 9 -38c0 -43 76 -98 171 -98c113 0 180 80 180 185c0 114 -81 181 -220 181v11c106 0 181 63 181 171c0 94 -53 149 -144 149
c-71 0 -132 -51 -129 -94c0 -14 -1 -26 -9 -34c-7 -7 -25 -8 -32 4c-4 8 -4 17 4 38c19 44 80 98 166 98c102 0 180 -59 180 -158c0 -83 -61 -157 -157 -178z" />
    <glyph glyph-name="four" unicode="4" horiz-adv-x="583" 
d="M533 180h-107v-119c0 -34 2 -50 35 -52v-9h-103v9c32 2 34 18 34 52v119h-357v13l357 507h34v-507h107v-13zM52 193h340v485z" />
    <glyph glyph-name="five" unicode="5" horiz-adv-x="571" 
d="M280 440c159 0 226 -111 226 -223c0 -127 -94 -227 -238 -227c-98 0 -178 47 -200 97c-9 19 -9 29 -4 39c7 13 25 12 33 4c10 -10 9 -24 9 -38c1 -43 80 -91 162 -91c132 0 202 98 202 216c0 111 -53 207 -198 207c-58 0 -100 -19 -149 -43c-2 0 -11 2 -11 2l28 317h335
v-19h-325l-25 -284c46 24 99 43 155 43z" />
    <glyph glyph-name="six" unicode="6" horiz-adv-x="586" 
d="M301 440c125 0 225 -83 225 -222c0 -134 -96 -228 -227 -228c-127 0 -232 100 -238 257c-12 279 86 455 260 463c97 4 163 -53 181 -97c8 -20 8 -30 4 -39c-8 -14 -25 -11 -33 -5c-10 10 -8 21 -8 35c1 44 -66 100 -146 94c-107 -8 -216 -97 -220 -378
c50 88 126 120 202 120zM299 4c102 0 188 85 188 214s-86 207 -188 207c-98 0 -200 -72 -200 -207s102 -214 200 -214z" />
    <glyph glyph-name="seven" unicode="7" horiz-adv-x="533" 
d="M68 700h405v-9c-138 -138 -213 -473 -217 -637c-2 -54 -6 -64 -21 -64c-14 0 -22 5 -21 42c9 195 94 490 237 649h-262c-76 0 -110 -21 -125 -65h-9z" />
    <glyph glyph-name="eight" unicode="8" horiz-adv-x="606" 
d="M351 378c120 -41 201 -89 194 -198c-7 -111 -96 -190 -242 -190c-135 0 -255 76 -242 209c9 97 76 149 186 177c-104 43 -156 103 -143 187c14 93 97 147 199 147c108 0 202 -61 205 -154c3 -92 -62 -152 -157 -178zM137 554c-2 -85 93 -139 190 -166
c83 30 144 83 144 165c0 83 -75 145 -168 145c-89 0 -163 -46 -166 -144zM505 162c14 126 -105 165 -225 202c-79 -18 -171 -56 -179 -169c-9 -127 104 -194 202 -194c103 0 191 54 202 161z" />
    <glyph glyph-name="nine" unicode="9" horiz-adv-x="586" 
d="M525 453c4 -271 -73 -455 -248 -463c-97 -4 -169 52 -187 96c-9 21 -8 31 -4 39c8 14 25 11 33 5c10 -10 8 -20 8 -35c-1 -43 72 -100 153 -94c106 8 203 97 206 378c-50 -87 -126 -120 -202 -120c-125 0 -224 83 -224 222c0 134 96 229 227 229c126 0 235 -101 238 -257
zM287 274c98 0 199 72 199 207s-101 214 -199 214c-102 0 -189 -85 -189 -214s87 -207 189 -207z" />
    <glyph glyph-name="zero" unicode="0" horiz-adv-x="606" 
d="M303 710c147 0 248 -143 248 -360c0 -218 -101 -360 -248 -360s-248 142 -248 360c0 217 101 360 248 360zM303 1c119 0 208 119 208 349c0 229 -89 348 -208 348s-208 -119 -208 -348c0 -230 89 -349 208 -349z" />
    <glyph glyph-name="period" unicode="." horiz-adv-x="201" 
d="M101 59c19 0 35 -13 35 -35s-16 -34 -35 -34s-36 12 -36 34s17 35 36 35z" />
    <glyph glyph-name="comma" unicode="," horiz-adv-x="211" 
d="M110 59c19 0 35 -16 35 -40c2 -54 -46 -121 -70 -140l-10 11c35 35 50 70 51 100c0 0 -5 -1 -6 -1c-19 0 -35 13 -35 35s16 35 35 35z" />
    <glyph glyph-name="colon" unicode=":" horiz-adv-x="200" 
d="M100 59c19 0 35 -13 35 -35s-16 -34 -35 -34s-35 12 -35 34s16 35 35 35zM100 375c-19 0 -35 13 -35 35c0 21 16 34 35 34s35 -13 35 -34c0 -22 -16 -35 -35 -35z" />
    <glyph glyph-name="semicolon" unicode=";" horiz-adv-x="211" 
d="M105 375c-19 0 -35 13 -35 35c0 21 16 34 35 34s36 -13 36 -34c0 -22 -17 -35 -36 -35zM110 59c19 0 35 -16 35 -40c2 -54 -46 -121 -70 -140l-10 11c35 35 50 70 51 100c0 0 -5 -1 -6 -1c-19 0 -35 13 -35 35s16 35 35 35z" />
    <glyph glyph-name="exclam" unicode="!" horiz-adv-x="200" 
d="M100 59c19 0 35 -13 35 -35s-16 -34 -35 -34s-35 12 -35 34s16 35 35 35zM92 166c0 126 -4 281 -13 501c-1 35 7 43 21 43s22 -8 21 -43c-9 -220 -13 -375 -13 -501c0 -14 -2 -16 -8 -16s-8 2 -8 16z" />
    <glyph glyph-name="question" unicode="?" horiz-adv-x="509" 
d="M231 59c19 0 35 -13 35 -35s-16 -34 -35 -34s-35 12 -35 34s16 35 35 35zM254 710c115 0 198 -67 189 -174c-15 -191 -200 -170 -209 -377c0 -6 -2 -9 -6 -9s-6 1 -6 9c3 190 175 204 184 376c5 99 -59 163 -152 163c-76 0 -144 -39 -146 -94c0 -13 2 -24 -7 -35
c-7 -8 -27 -8 -33 6c-4 8 -3 18 4 37c16 44 83 98 182 98z" />
    <glyph glyph-name="minus" unicode="&#x2212;" horiz-adv-x="461" 
d="M65 323h331v-12h-331v12z" />
    <glyph glyph-name="plus" unicode="+" horiz-adv-x="461" 
d="M396 323v-12h-159v-154h-12v154h-160v12h160v164h12v-164h159z" />
    <glyph glyph-name="equal" unicode="=" horiz-adv-x="461" 
d="M65 243v12h331v-12h-331zM65 396h331v-13h-331v13z" />
    <glyph glyph-name="multiply" unicode="&#xd7;" horiz-adv-x="376" 
d="M311 434l-116 -116l113 -112l-9 -9l-113 113l-109 -109l-8 8l109 109l-113 113l9 9l112 -113l116 116z" />
    <glyph glyph-name="divide" unicode="&#xf7;" horiz-adv-x="461" 
d="M65 320h331v-12h-331v12zM230 425c-19 0 -35 12 -35 34s16 35 35 35c20 0 36 -13 36 -35s-16 -34 -36 -34zM230 191c20 0 36 -13 36 -35s-16 -34 -36 -34c-19 0 -35 12 -35 34s16 35 35 35z" />
    <glyph glyph-name="notequal" unicode="&#x2260;" horiz-adv-x="460" 
d="M395 383h-122l-74 -128h196v-12h-203l-58 -99l-10 6l54 93h-113v12h120l74 128h-194v13h201l58 100l10 -7l-54 -93h115v-13z" />
    <glyph glyph-name="plusminus" unicode="&#xb1;" horiz-adv-x="460" 
d="M65 146v12h330v-12h-330zM236 396h159v-13h-159v-154h-12v154h-159v13h159v164h12v-164z" />
    <glyph glyph-name="numbersign" unicode="#" horiz-adv-x="713" 
d="M648 474h-153l-44 -210h153v-12h-156l-54 -252h-13l53 252h-206l-54 -252h-13l54 252h-150v12h152l45 210h-153v13h156l45 213h13l-45 -213h207l45 213h13l-45 -213h150v-13zM437 264l45 210h-207l-44 -210h206z" />
    <glyph glyph-name="bracketleft" unicode="[" horiz-adv-x="288" 
d="M223 740h-124v-800h124v-12h-158v824h158v-12z" />
    <glyph glyph-name="bracketright" unicode="]" horiz-adv-x="288" 
d="M65 752h158v-824h-158v12h124v800h-124v12z" />
    <glyph glyph-name="questiondown" unicode="&#xbf;" horiz-adv-x="509" 
d="M279 425c-20 0 -36 13 -36 35s16 33 36 33c19 0 35 -11 35 -33s-16 -35 -35 -35zM442 -91c3 -8 3 -18 -4 -37c-17 -44 -84 -98 -182 -98c-116 0 -199 67 -190 174c16 190 201 170 209 376c1 7 2 10 7 10c3 0 6 -1 6 -10c-3 -189 -175 -204 -184 -376
c-5 -99 59 -163 152 -163c76 0 143 40 145 94c1 14 -2 25 8 35c7 8 26 9 33 -5z" />
    <glyph glyph-name="exclamdown" unicode="&#xa1;" horiz-adv-x="201" 
d="M101 493c19 0 35 -11 35 -33s-16 -35 -35 -35s-36 13 -36 35s17 33 36 33zM109 318c0 -127 4 -281 12 -501c2 -35 -6 -43 -20 -43c-15 0 -22 8 -21 43c8 220 12 374 12 501c0 13 3 16 9 16c5 0 8 -3 8 -16z" />
    <glyph glyph-name="quotesinglbase" unicode="&#x201a;" horiz-adv-x="211" 
d="M110 59c19 0 35 -16 35 -40c2 -54 -46 -121 -70 -140l-10 11c35 35 50 70 51 100c0 0 -5 -1 -6 -1c-19 0 -35 13 -35 35s16 35 35 35z" />
    <glyph glyph-name="quotedblbase" unicode="&#x201e;" horiz-adv-x="343" 
d="M110 59c19 0 34 -16 35 -40c1 -54 -47 -121 -71 -140l-9 11c34 35 49 70 50 100l-5 -1c-19 0 -36 13 -36 35s17 35 36 35zM242 59c19 0 35 -16 35 -40c2 -54 -46 -121 -70 -140l-10 11c35 35 49 70 51 100c-1 0 -6 -1 -6 -1c-19 0 -35 13 -35 35s16 35 35 35z" />
    <glyph glyph-name="quotedblleft" unicode="&#x201c;" horiz-adv-x="343" 
d="M233 626c19 0 35 -13 35 -34c0 -22 -16 -35 -35 -35s-34 15 -35 39c-1 54 47 122 70 140l10 -10c-34 -35 -49 -71 -50 -100h5zM136 736l10 -10c-35 -35 -50 -71 -51 -100h6c19 0 35 -13 35 -34c0 -22 -16 -35 -35 -35s-35 15 -35 39c-2 54 46 122 70 140z" />
    <glyph glyph-name="quoteleft" unicode="&#x2018;" horiz-adv-x="211" 
d="M102 626c19 0 35 -13 35 -34c0 -22 -16 -35 -35 -35s-35 15 -36 39c-1 54 47 122 71 140l9 -10c-34 -35 -49 -71 -50 -100h6z" />
    <glyph glyph-name="quoteright" unicode="&#x2019;" horiz-adv-x="211" 
d="M110 710c19 0 35 -15 35 -39c2 -54 -46 -122 -70 -140l-10 10c35 35 50 71 51 100h-6c-19 0 -35 13 -35 35s16 34 35 34z" />
    <glyph glyph-name="quotedblright" unicode="&#x201d;" horiz-adv-x="343" 
d="M110 710c19 0 34 -15 35 -39c1 -54 -47 -122 -71 -140l-9 10c34 35 49 71 50 100h-5c-19 0 -36 13 -36 35s17 34 36 34zM242 710c19 0 35 -15 35 -39c2 -54 -46 -122 -70 -140l-10 10c35 35 49 71 51 100h-6c-19 0 -35 13 -35 35s16 34 35 34z" />
    <glyph glyph-name="slash" unicode="/" horiz-adv-x="398" 
d="M319 700h14l-254 -700h-14z" />
    <glyph glyph-name="backslash" unicode="\" horiz-adv-x="398" 
d="M79 700l254 -700h-15l-253 700h14z" />
    <glyph glyph-name="parenleft" unicode="(" horiz-adv-x="267" 
d="M200 743c-71 -104 -95 -259 -95 -393s24 -289 95 -394l-8 -8c-66 81 -127 234 -127 402s61 321 127 401z" />
    <glyph glyph-name="parenright" unicode=")" horiz-adv-x="265" 
d="M74 751c65 -80 126 -233 126 -401s-61 -321 -126 -402l-9 8c71 105 95 260 95 394s-24 289 -95 393z" />
    <glyph glyph-name="guilsinglright" unicode="&#x203a;" horiz-adv-x="290" 
d="M73 471l152 -139v-18l-152 -139l-8 9l116 139l-116 140z" />
    <glyph glyph-name="guilsinglleft" unicode="&#x2039;" horiz-adv-x="290" 
d="M225 463l-116 -140l116 -139l-8 -9l-152 139v18l152 139z" />
    <glyph glyph-name="guillemotright" unicode="&#xbb;" horiz-adv-x="480" 
d="M65 463l7 8l153 -139v-18l-153 -139l-7 9l116 139zM262 471l153 -139v-18l-153 -139l-7 9l116 139l-116 140z" />
    <glyph glyph-name="guillemotleft" unicode="&#xab;" horiz-adv-x="480" 
d="M415 463l-116 -140l116 -139l-7 -9l-153 139v18l153 139zM218 471l7 -8l-116 -140l116 -139l-7 -9l-153 139v18z" />
    <glyph glyph-name="bar" unicode="|" horiz-adv-x="164" 
d="M65 700h34v-804h-34v804z" />
    <glyph glyph-name="hyphen" unicode="-" horiz-adv-x="461" 
d="M65 323h331v-12h-331v12z" />
    <glyph glyph-name="endash" unicode="&#x2013;" horiz-adv-x="499" 
d="M65 323h369v-12h-369v12z" />
    <glyph glyph-name="emdash" unicode="&#x2014;" horiz-adv-x="552" 
d="M65 323h422v-12h-422v12z" />
    <glyph glyph-name="underscore" unicode="_" horiz-adv-x="461" 
d="M65 0h331v-12h-331v12z" />
    <glyph glyph-name="quotesingle" unicode="'" horiz-adv-x="174" 
d="M87 711c18 0 24 -12 21 -39c-5 -57 -9 -103 -13 -143c0 -10 -3 -15 -8 -15s-8 5 -8 15c-4 40 -8 86 -13 143c-3 27 3 39 21 39z" />
    <glyph glyph-name="quotedbl" unicode="&#x22;" horiz-adv-x="278" 
d="M88 711c17 0 24 -12 21 -39c-5 -57 -9 -103 -13 -143c-1 -10 -3 -15 -8 -15c-6 0 -8 5 -9 15c-3 40 -7 86 -13 143c-3 27 4 39 22 39zM190 711c18 0 25 -12 22 -39c-6 -57 -10 -103 -13 -143c-1 -10 -3 -15 -9 -15c-5 0 -7 5 -8 15c-4 40 -8 86 -13 143c-3 27 4 39 21 39
z" />
    <glyph glyph-name="asciitilde" unicode="~" horiz-adv-x="450" 
d="M375 396h10c-9 -62 -38 -80 -81 -80c-25 0 -60 16 -96 31c-27 11 -47 17 -71 17s-46 -15 -61 -43h-11c11 57 40 78 88 78c27 0 53 -10 87 -26c29 -13 53 -28 81 -28c29 0 46 24 54 51z" />
    <glyph glyph-name="approxequal" unicode="&#x2248;" horiz-adv-x="449" 
d="M136 440c-23 0 -46 -16 -61 -43h-10c10 56 40 77 87 77c27 0 54 -10 87 -26c30 -13 54 -28 81 -28c30 0 47 24 54 51h10c-9 -62 -38 -80 -80 -80c-26 0 -61 16 -96 31c-28 11 -48 18 -72 18zM320 292c30 0 47 24 54 51h10c-9 -62 -38 -80 -80 -80c-26 0 -61 16 -96 31
c-28 11 -48 17 -72 17c-23 0 -46 -15 -61 -43h-10c10 57 40 78 87 78c27 0 54 -10 87 -26c30 -13 54 -28 81 -28z" />
    <glyph glyph-name="asciicircum" unicode="^" horiz-adv-x="414" 
d="M215 761l134 -152l-9 -8l-133 116l-133 -116l-9 8l133 152h17z" />
    <glyph glyph-name="percent" unicode="%" horiz-adv-x="862" 
d="M370 521c0 -113 -68 -190 -160 -190s-160 77 -160 190c0 112 68 189 160 189s160 -77 160 -189zM210 343c70 0 121 70 121 178s-51 178 -121 178c-71 0 -121 -70 -121 -178s50 -178 121 -178zM652 369c92 0 160 -78 160 -190s-68 -189 -160 -189s-160 77 -160 189
s68 190 160 190zM652 1c71 0 121 70 121 178s-50 178 -121 178s-121 -70 -121 -178s50 -178 121 -178zM629 700h16l-410 -700h-16z" />
    <glyph glyph-name="perthousand" unicode="&#x2030;" horiz-adv-x="1285" 
d="M1075 369c92 0 160 -78 160 -190s-68 -189 -160 -189s-160 77 -160 189s68 190 160 190zM1075 1c71 0 121 70 121 178s-50 178 -121 178s-121 -70 -121 -178s50 -178 121 -178zM370 521c0 -113 -68 -190 -160 -190s-160 77 -160 190c0 112 68 189 160 189
s160 -77 160 -189zM210 343c71 0 121 70 121 178s-50 178 -121 178s-121 -70 -121 -178s50 -178 121 -178zM652 369c92 0 161 -78 161 -190s-69 -189 -161 -189s-160 77 -160 189s68 190 160 190zM652 1c71 0 122 70 122 178s-51 178 -122 178c-70 0 -121 -70 -121 -178
s51 -178 121 -178zM629 700h16l-410 -700h-16z" />
    <glyph glyph-name="bullet" unicode="&#x2022;" horiz-adv-x="236" 
d="M118 440c28 0 53 -19 53 -52s-25 -52 -53 -52c-29 0 -53 19 -53 52s24 52 53 52z" />
    <glyph glyph-name="degree" unicode="&#xb0;" horiz-adv-x="397" 
d="M198 710c74 0 134 -58 134 -139s-60 -139 -134 -139c-73 0 -133 58 -133 139s60 139 133 139zM198 443c57 0 99 51 99 128s-42 128 -99 128c-56 0 -98 -51 -98 -128s42 -128 98 -128z" />
    <glyph glyph-name="afii61352" unicode="&#x2116;" horiz-adv-x="1177" 
d="M731 311h396v-12h-396v12zM570 691v9h81v-9c-32 -3 -34 -19 -34 -53v-638h-14l-491 641v-579c0 -35 2 -51 34 -53v-9h-81v9c32 2 34 18 34 53v576c0 34 -2 50 -34 53v9h48l491 -642v580c0 34 -2 50 -34 53zM929 432c-73 0 -133 58 -133 139s60 140 133 140
s133 -59 133 -140s-60 -139 -133 -139zM929 699c-56 0 -98 -51 -98 -128s42 -128 98 -128c57 0 98 51 98 128s-41 128 -98 128z" />
    <glyph glyph-name="section" unicode="&#xa7;" horiz-adv-x="550" 
d="M483 221c-5 -44 -25 -82 -55 -111c23 -34 34 -73 26 -123c-13 -81 -89 -132 -183 -132c-98 0 -181 68 -198 111c-8 19 -7 29 -4 37c6 14 26 14 33 6c9 -11 7 -22 8 -36c2 -54 86 -106 161 -106c81 0 144 48 152 125c9 101 -83 153 -179 206c-107 58 -190 105 -177 211
c6 44 25 83 55 112c-23 33 -34 72 -26 122c13 81 90 133 183 133c98 0 181 -69 198 -112c8 -19 8 -29 4 -37c-6 -14 -26 -13 -33 -5c-9 10 -7 21 -7 35c-3 54 -87 106 -162 106c-81 0 -144 -47 -151 -125c-10 -100 83 -153 178 -205c107 -59 190 -105 177 -212zM279 221
c57 -29 106 -60 138 -98c17 19 29 42 34 69c21 116 -76 163 -180 217c-57 30 -106 60 -138 98c-17 -19 -28 -41 -33 -68c-22 -116 75 -163 179 -218z" />
    <glyph glyph-name="paragraph" unicode="&#xb6;" horiz-adv-x="523" 
d="M227 700h231v-9c-32 -3 -35 -19 -35 -53v-638h-12v688h-125v-688h-12v361h-47c-97 0 -162 66 -162 170c0 103 65 169 162 169z" />
    <glyph glyph-name="brokenbar" unicode="&#xa6;" horiz-adv-x="164" 
d="M65 -104v296h34v-296h-34zM65 700h34v-296h-34v296z" />
    <glyph glyph-name="greater" unicode="&#x3e;" horiz-adv-x="402" 
d="M65 404l272 -142v-21l-272 -142v38l232 115l-232 114v38z" />
    <glyph glyph-name="less" unicode="&#x3c;" horiz-adv-x="402" 
d="M337 366l-232 -114l232 -115v-38l-272 142v21l272 142v-38z" />
    <glyph glyph-name="ellipsis" unicode="&#x2026;" horiz-adv-x="534" 
d="M100 59c19 0 36 -13 36 -35s-17 -35 -36 -35s-35 13 -35 35s16 35 35 35zM267 59c19 0 35 -13 35 -35s-16 -35 -35 -35s-35 13 -35 35s16 35 35 35zM434 59c19 0 35 -13 35 -35s-16 -35 -35 -35s-35 13 -35 35s16 35 35 35z" />
    <glyph glyph-name="dagger" unicode="&#x2020;" horiz-adv-x="486" 
d="M382 544c27 2 39 -4 39 -22s-12 -24 -39 -21c-51 5 -93 8 -131 12c1 -119 5 -264 13 -462c1 -36 -7 -44 -21 -44s-22 8 -21 44c8 198 12 343 12 462c-37 -4 -79 -7 -130 -12c-27 -3 -39 3 -39 21s12 24 39 22c51 -5 93 -9 130 -12c-3 39 -7 84 -13 140c-2 27 4 39 22 39
s24 -12 21 -39c-5 -56 -9 -101 -12 -140c37 3 79 7 130 12z" />
    <glyph glyph-name="daggerdbl" unicode="&#x2021;" horiz-adv-x="486" 
d="M382 341c28 2 39 -4 39 -22s-11 -24 -39 -21c-49 4 -90 8 -127 11c2 -75 5 -160 9 -258c1 -36 -6 -44 -21 -44c-14 0 -22 8 -20 44c3 98 6 183 8 258c-36 -3 -77 -7 -127 -11c-27 -3 -39 3 -39 21s12 24 39 22c50 -5 91 -9 128 -12c2 68 3 129 3 184
c-37 -4 -80 -7 -131 -12c-27 -3 -39 3 -39 21s12 24 39 22c51 -5 93 -9 131 -12c-4 39 -8 84 -13 140c-3 27 4 39 21 39c18 0 24 -12 22 -39c-6 -56 -10 -101 -13 -140c37 3 80 7 130 12c28 2 39 -4 39 -22s-11 -24 -39 -21c-51 5 -93 8 -130 12c0 -55 1 -116 3 -184
c36 3 78 7 127 12z" />
    <glyph glyph-name="copyright" unicode="&#xa9;" horiz-adv-x="806" 
d="M403 697c194 0 353 -158 353 -353c0 -194 -159 -352 -353 -352s-353 158 -353 352c0 195 159 353 353 353zM403 1c189 0 343 154 343 343s-154 343 -343 343s-343 -154 -343 -343s154 -343 343 -343zM413 146c65 0 126 31 145 97h5l-10 -58c-37 -30 -85 -46 -140 -46
c-116 0 -213 88 -213 212c0 123 89 212 205 212c55 0 113 -21 149 -50v-54h-5c-13 67 -79 97 -144 97c-99 0 -184 -78 -184 -205s93 -205 192 -205z" />
    <glyph glyph-name="registered" unicode="&#xae;" horiz-adv-x="804" 
d="M402 -8c-194 0 -352 158 -352 352c0 195 158 353 352 353s352 -158 352 -353c0 -194 -158 -352 -352 -352zM402 687c-189 0 -343 -154 -343 -343s154 -342 343 -342s343 153 343 342s-154 343 -343 343zM540 182c11 -16 22 -27 39 -31v-6h-35l-133 180
c-8 0 -16 -1 -25 -1h-75v-142c0 -20 1 -30 20 -31v-6h-60v6c19 1 20 11 20 31v339c0 20 -1 29 -20 31v5h115c96 0 156 -44 156 -116c0 -61 -42 -101 -111 -113zM382 331c94 0 139 41 139 110c0 68 -45 109 -139 109h-71v-219h71z" />
    <glyph glyph-name="asterisk" unicode="*" horiz-adv-x="425" 
d="M358 848c5 -17 -4 -26 -30 -32c-48 -11 -69 -17 -99 -23c22 -24 36 -41 70 -79c18 -20 20 -33 6 -43c-14 -11 -25 -4 -39 19c-26 45 -37 64 -53 93c-16 -29 -27 -48 -53 -93c-14 -23 -25 -30 -39 -19c-15 10 -12 23 6 43c34 38 48 54 70 78c-31 7 -52 13 -100 24
c-27 6 -36 15 -30 32s19 18 43 6c46 -21 66 -30 95 -44c-4 35 -6 56 -12 109c-2 28 3 39 21 39c17 0 22 -11 20 -39c-6 -52 -8 -73 -12 -108c28 13 48 22 92 43c25 12 38 11 44 -6z" />
    <glyph glyph-name="braceleft" unicode="{" horiz-adv-x="336" 
d="M271 733c-23 -6 -56 -13 -82 -58c-28 -52 -12 -140 -12 -221c0 -105 -68 -121 -68 -121s68 -16 68 -121c0 -81 -16 -170 12 -221c26 -46 59 -53 82 -58v-8c-29 4 -76 11 -105 56c-25 38 -27 82 -20 199c8 117 -23 133 -45 141c-17 7 -36 7 -36 7v10s19 0 36 7
c22 8 53 23 45 141c-7 117 -5 161 20 199c29 44 76 52 105 56v-8z" />
    <glyph glyph-name="braceright" unicode="}" horiz-adv-x="336" 
d="M235 345c17 -7 36 -7 36 -7v-10s-19 0 -36 -7c-22 -8 -53 -24 -45 -141c7 -117 5 -161 -20 -199c-29 -45 -76 -52 -105 -56v8c23 5 56 12 82 58c28 51 12 140 12 221c0 105 68 121 68 121s-68 16 -68 121c0 81 16 169 -12 221c-26 45 -59 52 -82 58v8
c29 -4 76 -12 105 -56c25 -38 27 -82 20 -199c-8 -118 23 -133 45 -141z" />
    <glyph glyph-name="sterling" unicode="&#xa3;" horiz-adv-x="572" 
d="M503 84h9l-13 -84h-431v9c73 111 75 214 63 318h-81v13h79c-7 55 -18 111 -24 170c-12 123 72 200 196 200c94 0 153 -54 172 -98c8 -19 9 -29 4 -37c-7 -13 -24 -12 -32 -5c-8 8 -9 21 -8 34c1 43 -60 94 -136 94c-110 0 -170 -77 -161 -189c4 -60 11 -116 15 -169h199
v-13h-198c6 -103 -4 -199 -69 -309h291c77 0 110 22 125 66z" />
    <glyph glyph-name="Euro" unicode="&#x20ac;" horiz-adv-x="764" 
d="M706 167h8l-16 -99c-64 -51 -140 -79 -235 -79c-173 0 -321 117 -354 289h-64v12h62c-3 19 -5 39 -5 60c0 18 2 36 4 53h-61v12h63c27 175 166 295 342 295c95 0 188 -36 248 -85v-92h-8c-21 114 -129 164 -240 164c-150 0 -281 -105 -307 -282h330v-12h-332
c-2 -17 -3 -35 -3 -53c0 -21 2 -41 5 -60h298v-12h-296c30 -173 170 -276 318 -276c111 0 211 52 243 165z" />
    <glyph glyph-name="dollar" unicode="$" horiz-adv-x="581" 
d="M297 386c121 -54 258 -103 230 -235c-22 -100 -98 -161 -228 -161h-2v-100h-13v100c-85 3 -173 28 -234 74v99h9c30 -113 125 -152 225 -160v346c-109 48 -213 99 -184 229c17 75 96 128 184 132v100h13v-100c73 0 138 -26 202 -75v-86h-8c-31 105 -100 149 -194 149
v-312zM130 573c-18 -92 62 -139 154 -181v305c-76 -3 -139 -44 -154 -124zM497 122c28 126 -87 173 -200 222v-342h2c93 -4 180 41 198 120z" />
    <glyph glyph-name="yen" unicode="&#xa5;" horiz-adv-x="593" 
d="M489 700h84v-9c-28 -5 -41 -16 -58 -47l-189 -351h136v-12h-141v-68h141v-13h-141v-138c0 -35 3 -51 35 -53v-9h-103v9c32 2 34 18 34 53v138h-134v13h134v68h-134v12h128l-205 349c-17 29 -28 45 -56 49v9h106v-9c-23 -2 -33 -16 -15 -47l204 -348v0l188 348
c13 25 13 43 -14 47v9z" />
    <glyph glyph-name="cent" unicode="&#xa2;" horiz-adv-x="496" 
d="M448 211l8 -6c-40 -61 -95 -102 -180 -102c-7 0 -15 0 -22 1v-116h-12v117c-116 15 -202 107 -202 248c0 142 90 229 202 242v117h12v-116c6 1 11 1 17 1c78 0 145 -31 168 -79c9 -18 6 -40 -9 -45c-18 -6 -34 5 -33 31c2 46 -47 83 -123 82c-6 0 -13 0 -20 -1v-460
c2 0 3 0 5 -1c87 -11 151 30 189 87zM74 353c0 -138 81 -208 168 -226v456c-89 -17 -168 -98 -168 -230z" />
    <glyph glyph-name="currency" unicode="&#xa4;" horiz-adv-x="650" 
d="M559 350c0 -69 -21 -127 -57 -169l83 -83l-8 -9l-83 83c-43 -44 -102 -69 -169 -69s-126 25 -169 69l-83 -83l-8 9l83 83c-36 42 -57 100 -57 169s21 126 57 168l-83 83l8 9l83 -83c43 45 102 70 169 70s126 -25 169 -70l83 83l8 -9l-83 -83c36 -42 57 -99 57 -168z
M325 115c109 0 198 89 198 235s-89 235 -198 235s-198 -89 -198 -235s89 -235 198 -235z" />
    <glyph glyph-name="ampersand" unicode="&#x26;" horiz-adv-x="797" 
d="M565 121c45 -46 111 -117 187 -112v-9c-79 -36 -136 29 -182 69c-16 14 -46 42 -83 76c-22 -55 -76 -155 -204 -155c-111 0 -223 69 -223 190c0 102 83 174 186 195c-60 50 -126 120 -123 189c4 93 82 146 172 146c96 0 177 -54 180 -147c3 -92 -69 -163 -169 -194
c0 0 122 -116 186 -178c41 102 60 192 158 195c44 1 75 -21 85 -50c7 -20 5 -39 -12 -43c-13 -4 -33 1 -32 30c2 30 -18 46 -53 47c-68 2 -102 -95 -136 -188c29 -28 53 -51 63 -61zM161 576c-3 -75 77 -146 136 -197c79 25 145 94 145 181c0 77 -62 137 -140 137
c-88 0 -139 -47 -141 -121zM288 2c120 0 170 101 189 152c-89 84 -207 197 -223 212c-76 -24 -155 -86 -158 -178c-4 -127 102 -186 192 -186z" />
    <glyph glyph-name="at" unicode="@" horiz-adv-x="876" 
d="M433 737c224 0 393 -163 393 -370c0 -104 -53 -219 -141 -219c-60 0 -103 39 -110 101c-28 -62 -83 -101 -149 -101c-104 0 -178 78 -178 198s74 198 178 198c66 0 121 -40 149 -103l19 94h7v-261c0 -86 39 -116 90 -116c72 0 125 107 125 209c0 185 -148 360 -383 360
c-223 0 -373 -168 -373 -370c0 -224 161 -378 390 -378c66 0 119 20 151 44v-14c-29 -19 -92 -40 -151 -40c-241 0 -400 160 -400 388c0 214 161 380 383 380zM426 158c81 0 148 72 148 188c0 115 -67 188 -148 188c-83 0 -149 -70 -149 -188c0 -119 66 -188 149 -188z" />
    <glyph glyph-name="bitcoin" unicode="&#x20bf;" horiz-adv-x="616" 
d="M571 190c0 -116 -92 -174 -223 -187v-113h-12v112c-16 -2 -33 -2 -50 -2h-57v-110h-12v110h-152v9c32 2 34 18 34 53v576c0 34 -2 50 -34 53v9h152v110h12v-110c39 0 75 -3 107 -9v119h12v-122c94 -21 151 -71 151 -158c0 -86 -68 -137 -160 -157
c129 -9 232 -69 232 -183zM133 688v-314h102c139 0 229 48 229 156c0 113 -82 158 -242 158h-89zM279 12c110 0 255 33 255 178c0 111 -92 171 -229 171h-172v-349h146z" />
    <glyph glyph-name="ruble" unicode="&#x20bd;" horiz-adv-x="564" 
d="M261 284h-128v-85h241v-12h-241v-125c0 -34 2 -50 34 -53v-9h-102v9c32 3 34 19 34 53v125h-34v12h34v85h-34v12h34v342c0 35 -2 51 -34 53v9h196c163 0 258 -84 258 -208s-95 -208 -258 -208zM133 688v-392h121c160 0 229 79 229 196s-69 196 -229 196h-121z" />
    <glyph glyph-name="AE" unicode="&#xc6;" horiz-adv-x="950" 
d="M891 97h9l-18 -97h-451v9c32 2 34 18 34 53v179h-256l-113 -179c-18 -29 -21 -49 7 -53v-9h-83v9c29 4 44 20 64 53l363 576c18 28 12 49 -16 53v9h431l19 -97h-9c-15 48 -38 84 -111 84h-261v-324h196c58 0 68 17 72 48h9v-109h-9c-4 32 -14 49 -72 49h-196v-339h281
c72 0 95 36 110 85zM217 254h248v394z" />
    <glyph glyph-name="OE" unicode="&#x152;" horiz-adv-x="1216" 
d="M1157 97h9l-19 -97h-451v9c32 2 35 18 35 53v130c-57 -124 -180 -202 -327 -202c-202 0 -359 149 -359 360c0 210 157 360 359 360c147 0 270 -79 327 -202v130c0 34 -3 50 -35 53v9h432l18 -97h-9c-15 48 -38 84 -110 84h-262v-324h196c58 0 68 17 73 48h9v-109h-9
c-5 32 -15 49 -73 49h-196v-339h281c72 0 95 36 111 85zM404 2c166 0 324 120 324 348s-158 347 -324 347c-165 0 -323 -119 -323 -347s158 -348 323 -348z" />
    <glyph glyph-name="Dcroat" unicode="&#x110;" horiz-adv-x="717" 
d="M285 700c200 0 387 -106 387 -350s-187 -350 -387 -350h-220v9c32 2 34 18 34 53v285h-34v12h34v279c0 34 -2 50 -34 53v9h220zM278 12c205 0 357 106 357 338c0 231 -152 337 -357 337h-144v-328h208v-12h-208v-335h144z" />
    <glyph glyph-name="Oslash" unicode="&#xd8;" horiz-adv-x="810" 
d="M665 604c62 -64 99 -152 99 -254c0 -211 -157 -360 -360 -360c-100 0 -189 36 -254 99l-73 -73l-9 8l74 74c-61 63 -97 150 -97 252c0 210 157 360 359 360c100 0 188 -36 252 -98l75 75l9 -8zM81 350c0 -100 30 -178 78 -236l481 482c-61 67 -147 101 -236 101
c-165 0 -323 -119 -323 -347zM404 2c165 0 323 120 323 348c0 100 -30 179 -79 237l-481 -482c61 -68 148 -103 237 -103z" />
    <glyph glyph-name="Thorn" unicode="&#xde;" horiz-adv-x="564" 
d="M261 558c163 0 258 -84 258 -208c0 -123 -95 -208 -258 -208h-128v-80c0 -34 2 -50 35 -53v-9h-103v9c32 3 34 19 34 53v576c0 35 -2 51 -34 53v9h103v-9c-33 -2 -35 -18 -35 -53v-80h128zM254 154c160 0 229 79 229 196s-69 196 -229 196h-121v-392h121z" />
    <glyph glyph-name="Lslash" unicode="&#x141;" horiz-adv-x="569" 
d="M525 97h9l-19 -97h-450v9c32 2 34 18 34 53v134l-34 -10v12l34 10v430c0 34 -2 50 -34 53v9h102v-9c-32 -3 -34 -19 -34 -53v-419l220 67v-12l-220 -67v-195h282c72 0 95 36 110 85z" />
    <glyph glyph-name="Hbar" unicode="&#x126;" horiz-adv-x="735" 
d="M671 691c-32 -3 -35 -19 -35 -53v-118h35v-13h-35v-445c0 -35 3 -51 35 -53v-9h-103v9c32 2 34 18 34 53v281h-468v-281c0 -35 2 -51 34 -53v-9h-103v9c32 2 35 18 35 53v445h-35v13h35v118c0 34 -3 50 -35 53v9h103v-9c-32 -3 -34 -19 -34 -53v-118h468v118
c0 34 -2 50 -34 53v9h103v-9zM602 355v152h-468v-152h468z" />
    <glyph glyph-name="Eng" unicode="&#x14a;" horiz-adv-x="710" 
d="M569 700h81v-9c-32 -3 -34 -19 -34 -53v-638c0 -131 -39 -227 -158 -227c-76 0 -139 51 -155 93c-8 21 -8 39 5 47c10 6 22 3 27 -5c9 -12 1 -22 2 -35c2 -33 40 -87 121 -87c110 0 145 91 145 214l-492 641v-579c0 -35 3 -51 35 -53v-9h-81v9c32 2 34 18 34 53v576
c0 34 -2 50 -34 53v9h48l491 -642v580c0 34 -2 50 -35 53v9z" />
    <glyph glyph-name="Tbar" unicode="&#x166;" horiz-adv-x="641" 
d="M582 700l19 -97h-9c-16 48 -39 84 -111 84h-143v-334h125v-13h-125v-278c0 -35 2 -51 34 -53v-9h-103v9c32 2 34 18 34 53v278h-125v13h125v334h-143c-72 0 -95 -36 -111 -84h-9l19 97h523z" />
    <glyph glyph-name="germandbls" unicode="&#xdf;" horiz-adv-x="612" 
d="M413 337c101 -46 169 -100 157 -197c-11 -90 -85 -151 -182 -151c-72 0 -137 30 -200 82v99h9c30 -125 110 -168 191 -168c72 0 129 41 143 113c20 104 -50 147 -154 199c-104 53 -172 112 -121 170c28 31 50 70 54 112c6 64 -31 103 -92 103c-84 0 -99 -66 -99 -183
v-516h-69v9c32 2 35 18 35 53v478c0 94 38 170 135 170c96 0 135 -57 126 -120c-7 -41 -29 -70 -73 -105c-66 -53 49 -107 140 -148z" />
    <glyph glyph-name="ae" unicode="&#xe6;" horiz-adv-x="834" 
d="M794 269h-389c-1 -10 -1 -19 -1 -29c0 -147 91 -217 184 -229c88 -11 154 29 191 86l9 -6c-41 -61 -98 -101 -183 -101c-106 0 -193 61 -224 165c-13 -108 -88 -165 -181 -165c-85 0 -154 45 -159 118c-6 88 60 148 151 156c98 8 176 13 176 13v52
c0 110 -65 143 -142 143c-50 0 -105 -28 -104 -78c1 -21 -10 -35 -30 -30c-19 5 -18 27 -8 47c24 48 75 69 139 72c75 3 153 -23 174 -115c37 74 107 115 192 115c160 0 205 -134 205 -213v-1zM593 472c-92 -1 -172 -69 -187 -191h355c-3 90 -47 191 -168 191zM368 176v90
c0 0 -69 -3 -149 -12c-92 -10 -153 -58 -147 -140c6 -78 73 -113 152 -106c95 8 144 87 144 168z" />
    <glyph glyph-name="oe" unicode="&#x153;" horiz-adv-x="935" 
d="M895 269h-389c-1 -10 -2 -19 -2 -29c0 -147 92 -217 185 -229c87 -11 153 29 191 86l8 -6c-40 -61 -97 -101 -182 -101c-101 0 -184 55 -219 149c-34 -94 -118 -149 -218 -149c-130 0 -234 95 -234 247c0 151 104 246 234 246c98 0 181 -53 217 -144
c31 93 109 143 203 144c160 0 206 -134 206 -213v-1zM693 472c-92 -1 -172 -69 -186 -191h355c-3 90 -47 191 -169 191zM269 2c110 0 199 89 199 235c0 145 -89 235 -199 235c-109 0 -198 -90 -198 -235c0 -146 89 -235 198 -235z" />
    <glyph glyph-name="dcroat" unicode="&#x111;" horiz-adv-x="569" 
d="M539 549h-58v-507c0 -37 31 -42 54 -28l4 -5c-5 -7 -21 -19 -40 -19c-31 0 -52 17 -52 56v68c-35 -77 -104 -124 -185 -124c-129 0 -222 97 -222 246c0 150 93 247 222 247c81 0 150 -47 185 -124v190h-192v13h192v76c0 34 -3 50 -35 53v9l60 19h9v-157h58v-13zM262 2
c102 0 184 90 184 234c0 145 -82 235 -184 235c-104 0 -185 -87 -185 -235s81 -234 185 -234z" />
    <glyph glyph-name="oslash" unicode="&#xf8;" horiz-adv-x="554" 
d="M505 463l-58 -58c35 -42 57 -100 57 -168c0 -152 -104 -247 -234 -247c-67 0 -127 24 -169 69l-58 -58l-8 9l58 58c-36 42 -58 100 -58 169c0 151 104 246 235 246c66 0 126 -24 168 -69l58 58zM71 237c0 -61 16 -111 41 -150l308 309c-36 48 -90 76 -150 76
c-110 0 -199 -90 -199 -235zM468 237c0 60 -15 110 -41 149l-308 -309c36 -48 90 -75 151 -75c109 0 198 89 198 235z" />
    <glyph glyph-name="thorn" unicode="&#xfe;" horiz-adv-x="565" 
d="M293 483c129 0 222 -97 222 -246c0 -150 -93 -248 -222 -248c-81 0 -149 48 -185 125v-279c0 -34 3 -50 35 -53v-9h-103v9c32 3 34 19 34 53v803c0 34 -2 50 -34 53v9l59 19h9v-360c36 77 104 124 185 124zM293 2c104 0 186 87 186 235s-82 235 -186 235
c-101 0 -184 -91 -184 -235c0 -145 83 -235 184 -235z" />
    <glyph glyph-name="lslash" unicode="&#x142;" 
d="M227 274l-98 -38v-174c0 -35 2 -51 35 -53v-9h-103v9c32 2 34 18 34 53v161l-98 -37v12l98 37v403c0 34 -2 50 -34 53v9l59 19h9v-470l98 37v-12z" />
    <glyph glyph-name="hbar" unicode="&#x127;" horiz-adv-x="546" 
d="M472 62c0 -35 2 -51 34 -53v-9h-102v9c32 2 34 18 34 53v212c0 107 -43 197 -158 197c-75 0 -161 -65 -161 -144v-265c0 -35 3 -51 35 -53v-9h-103v9c32 2 34 18 34 53v487h-34v13h34v76c0 34 -2 50 -34 53v9l59 19h9v-157h216v-13h-216v-167c29 56 94 101 167 101
c109 0 186 -64 186 -197v-224z" />
    <glyph glyph-name="eng" unicode="&#x14b;" horiz-adv-x="541" 
d="M286 483c108 0 185 -70 185 -203v-315c0 -56 0 -102 -5 -125c-9 -43 -40 -67 -88 -67c-40 0 -78 23 -96 60c-10 21 -12 39 1 46c8 6 18 5 24 -4c7 -8 7 -15 6 -28c-1 -48 40 -62 69 -62c28 0 57 14 60 54c2 29 -5 40 -5 132v303c0 107 -43 197 -158 197
c-75 0 -160 -65 -160 -144v-265c0 -35 2 -51 34 -53v-9h-103v9c32 2 34 18 34 53v340c0 34 -2 50 -34 53v9l60 19h9v-101c28 56 94 101 167 101z" />
    <glyph glyph-name="tbar" unicode="&#x167;" horiz-adv-x="328" 
d="M283 38l5 -5c-14 -19 -41 -43 -81 -43c-57 0 -98 35 -98 126v197h-79v12h79v136h-79v12c73 6 100 33 102 118h11v-118h126v-12h-126v-136h100v-12h-100v-197c0 -62 23 -95 56 -105c29 -8 62 1 84 27z" />
    <glyph glyph-name="longs" unicode="&#x17f;" horiz-adv-x="291" 
d="M319 686c32 -22 32 -51 18 -60c-11 -7 -30 -1 -31 25c-2 35 -39 54 -78 49c-73 -11 -71 -86 -71 -191v-447c0 -35 2 -51 34 -53v-9h-103v9c32 2 35 18 35 53v399h-93v12h93v67c-4 89 13 166 114 170c35 2 63 -10 82 -24z" />
    <glyph glyph-name="eth" unicode="&#xf0;" horiz-adv-x="576" 
d="M390 602c80 -78 134 -198 125 -355c-9 -156 -112 -257 -238 -257c-131 0 -227 95 -227 228c0 139 99 222 224 222c76 0 152 -32 202 -120c-2 127 -45 215 -101 273l-96 -59l-7 10l94 58c-67 63 -150 89 -206 93l2 11c77 -6 155 -38 218 -95l74 45l6 -10zM277 5
c98 0 199 78 199 213s-101 207 -199 207c-102 0 -189 -78 -189 -207s87 -213 189 -213z" />
    <glyph glyph-name="Aogonek" unicode="&#x104;" horiz-adv-x="665" 
d="M591 0c-25 -20 -62 -61 -68 -103c-9 -66 64 -78 98 -42l6 -6c-12 -18 -39 -38 -69 -38c-49 0 -78 42 -59 95c13 35 54 76 80 94h-42v9c27 4 34 20 20 53l-75 180h-331l-68 -180c-13 -32 -8 -49 19 -53v-9h-82v9c26 4 36 17 48 46l220 583c11 30 16 50 -13 53v9h51
l268 -638c12 -31 24 -49 52 -53v-9h-55zM155 254h322l-170 402z" />
    <glyph glyph-name="grave" unicode="`" horiz-adv-x="286" 
d="M211 587c8 -6 12 -9 9 -14s-8 -4 -17 -1c-37 15 -58 23 -110 45c-25 10 -32 22 -24 37c8 16 22 16 44 1c48 -32 66 -45 98 -68z" />
    <glyph glyph-name="Ccedilla" unicode="&#xc7;" horiz-adv-x="707" 
d="M406 -10h-16l-17 -51c12 3 30 6 50 0c33 -8 47 -36 43 -64c-5 -40 -37 -64 -76 -64c-25 0 -51 12 -61 27l5 6c5 -5 23 -15 46 -15c29 1 51 19 54 50c3 23 -8 43 -32 48c-17 4 -32 0 -39 -2l-4 11l19 55c-184 13 -333 159 -333 359c0 210 151 360 348 360
c94 0 188 -36 248 -84v-93h-8c-21 114 -129 165 -240 165c-168 0 -312 -132 -312 -348s157 -348 325 -348c111 0 210 52 243 165h8l-16 -99c-64 -51 -140 -78 -235 -78z" />
    <glyph glyph-name="Eogonek" unicode="&#x118;" horiz-adv-x="585" 
d="M472 0c-25 -20 -63 -61 -69 -103c-9 -66 64 -78 99 -42l5 -6c-11 -18 -38 -38 -69 -38c-49 0 -77 42 -58 95c13 35 53 76 80 94h-395v9c32 3 35 19 35 53v576c0 34 -3 50 -35 53v9h432l18 -97h-9c-15 49 -38 85 -110 85h-262v-325h196c58 0 68 17 73 49h8v-109h-8
c-5 31 -15 48 -73 48h-196v-339h281c72 0 95 36 111 85h9l-19 -97h-44z" />
    <glyph glyph-name="Iogonek" unicode="&#x12e;" horiz-adv-x="233" 
d="M173 -145l5 -6c-11 -18 -38 -38 -69 -38c-48 0 -77 42 -58 95c13 35 53 76 80 94h-66v9c32 3 34 19 34 53v576c0 34 -2 50 -34 53v9h103v-9c-32 -3 -34 -19 -34 -53v-576c0 -34 2 -50 34 -53v-9h-25c-25 -20 -63 -61 -68 -103c-10 -66 63 -78 98 -42z" />
    <glyph glyph-name="Scedilla" unicode="&#x15e;" horiz-adv-x="580" 
d="M129 573c-40 -216 448 -184 397 -422c-21 -99 -95 -159 -221 -161l-17 -51c13 3 30 5 51 0c32 -8 47 -36 43 -64c-5 -40 -38 -64 -77 -64c-24 0 -50 12 -61 27l5 6c6 -5 24 -15 47 -15c28 1 50 19 54 50c2 23 -8 43 -32 48c-18 3 -32 0 -39 -2l-5 11l19 54
c-89 1 -180 27 -243 74v99h8c32 -118 135 -156 241 -161c93 -4 180 41 197 120c56 253 -457 187 -396 456c18 78 103 132 196 132c73 0 139 -26 203 -75v-86h-9c-31 105 -99 149 -194 149c-81 0 -151 -41 -167 -125z" />
    <glyph glyph-name="Uogonek" unicode="&#x172;" horiz-adv-x="721" 
d="M580 700h81v-9c-32 -3 -35 -19 -35 -53v-375c0 -111 -55 -259 -221 -272c-24 -22 -52 -57 -58 -94c-9 -66 64 -78 99 -42l5 -6c-11 -18 -38 -38 -69 -38c-49 0 -77 42 -58 95c11 29 41 63 67 84h-11c-167 0 -280 97 -280 273v375c0 34 -2 50 -35 53v9h103v-9
c-32 -3 -34 -19 -34 -53v-375c0 -165 111 -255 250 -255c173 0 230 149 230 255v375c0 34 -2 50 -34 53v9z" />
    <glyph glyph-name="aogonek" unicode="&#x105;" horiz-adv-x="480" 
d="M351 -103c-9 -66 64 -78 98 -42l6 -6c-12 -18 -39 -38 -69 -38c-49 0 -78 42 -59 95c12 31 45 67 71 87c-18 7 -29 24 -29 53v65c-17 -60 -78 -121 -172 -121c-85 0 -151 45 -156 118c-5 89 61 148 151 156c98 9 177 13 177 13v52c0 110 -65 143 -142 143
c-50 0 -106 -28 -104 -77c1 -22 -10 -36 -30 -30c-19 5 -19 26 -8 46c24 48 75 70 138 72c89 4 180 -33 180 -165v-276c0 -39 38 -42 54 -21l4 -5c-7 -12 -20 -26 -41 -26h-12c-24 -21 -52 -56 -57 -93zM369 176v91c0 0 -69 -4 -149 -12c-93 -10 -153 -58 -147 -141
c6 -78 73 -113 152 -106c95 8 144 87 144 168z" />
    <glyph glyph-name="ccedilla" unicode="&#xe7;" horiz-adv-x="497" 
d="M457 91c-41 -60 -96 -101 -181 -101l-17 -51c13 3 30 6 51 0c32 -8 47 -36 43 -64c-5 -40 -38 -64 -77 -64c-24 0 -50 12 -61 27l6 6c5 -5 23 -15 46 -15c28 1 50 19 54 50c2 23 -8 43 -32 48c-18 4 -32 0 -39 -2l-4 11l18 54c-127 5 -224 101 -224 250
c0 154 106 243 231 243c78 0 145 -30 168 -78c9 -18 6 -40 -9 -45c-17 -6 -34 5 -33 31c2 46 -46 82 -122 81c-102 -1 -200 -84 -200 -232c0 -146 91 -217 184 -229c88 -11 152 30 189 87z" />
    <glyph glyph-name="eogonek" unicode="&#x119;" horiz-adv-x="505" 
d="M465 269h-389c-1 -9 -1 -19 -1 -29c0 -146 91 -217 184 -229c88 -11 154 30 191 86l9 -6c-38 -57 -92 -97 -169 -101c-24 -22 -52 -57 -57 -93c-9 -66 64 -78 98 -42l6 -6c-12 -18 -39 -38 -69 -38c-49 0 -78 42 -59 95c11 29 42 63 67 84c-133 0 -236 96 -236 250
s95 243 220 243c160 0 205 -134 205 -212v-2zM264 472c-92 -1 -172 -69 -187 -191h355c-3 90 -47 191 -168 191z" />
    <glyph glyph-name="iogonek" unicode="&#x12f;" 
d="M104 577c-18 0 -33 12 -33 33c0 20 15 32 33 32s33 -12 33 -32c0 -21 -15 -33 -33 -33zM172 -145l6 -6c-12 -18 -38 -38 -69 -38c-49 0 -78 42 -59 95c13 35 54 76 81 94h-71v9c32 3 34 19 34 53v340c0 35 -2 51 -34 53v9l59 19h9v-421c0 -34 2 -50 34 -53v-9h-20
c-25 -20 -62 -61 -68 -103c-9 -66 64 -78 98 -42z" />
    <glyph glyph-name="scedilla" unicode="&#x15f;" horiz-adv-x="450" 
d="M247 253c80 -28 173 -60 148 -158c-19 -75 -90 -110 -183 -105l-17 -51c12 3 30 5 50 0c33 -8 47 -36 43 -64c-5 -40 -37 -64 -76 -64c-25 0 -51 12 -61 27l5 6c5 -5 23 -15 46 -15c29 1 51 19 54 50c3 23 -8 43 -32 48c-17 3 -32 0 -39 -2l-4 11l19 55
c-57 5 -118 28 -160 57v75h7c22 -84 93 -115 165 -121c55 -4 134 8 155 80c26 88 -62 113 -135 137c-85 28 -192 64 -156 181c17 55 87 86 150 84c51 -1 107 -19 151 -53v-69h-7c-23 84 -90 110 -150 110c-45 0 -105 -21 -120 -65c-32 -100 65 -125 147 -154z" />
    <glyph glyph-name="uogonek" unicode="&#x173;" horiz-adv-x="551" 
d="M485 -145l6 -6c-11 -18 -38 -38 -69 -38c-49 0 -78 42 -58 95c12 35 53 76 80 94h-26v87c-25 -54 -78 -97 -158 -97c-108 0 -195 64 -195 197v215c0 35 -2 51 -35 53v9l60 19h9v-290c0 -107 53 -191 168 -191c83 0 151 65 151 145v255c0 35 -3 51 -35 53v9l60 19h9v-421
c0 -34 2 -50 34 -53v-9h-30c-26 -20 -63 -61 -69 -103c-9 -66 64 -78 98 -42z" />
    <glyph glyph-name="ogonek" unicode="&#x2db;" horiz-adv-x="263" 
d="M151 0h12c-25 -20 -62 -61 -68 -103c-10 -66 63 -78 98 -42l5 -6c-11 -18 -38 -38 -69 -38c-48 0 -77 42 -58 95c13 35 54 76 80 94z" />
    <glyph glyph-name="cedilla" unicode="&#xb8;" horiz-adv-x="269" 
d="M159 -61c33 -8 47 -36 44 -64c-6 -40 -38 -64 -77 -64c-25 0 -51 12 -61 27l5 6c5 -5 23 -15 46 -15c29 1 51 19 54 50c3 23 -8 43 -32 48c-17 4 -31 0 -39 -2l-4 11l22 64h12l-20 -61c12 3 30 6 50 0z" />
    <glyph glyph-name="commaaccent" unicode="&#xf6c3;" horiz-adv-x="211" 
d="M110 -100c19 0 35 -15 35 -39c2 -54 -46 -122 -70 -140l-10 10c35 35 49 71 51 100h-6c-19 0 -35 13 -35 35c0 21 16 34 35 34z" />
    <glyph glyph-name="acute" unicode="&#xb4;" horiz-adv-x="286" 
d="M75 587c32 23 51 36 98 68c22 15 36 15 44 -1c9 -15 1 -27 -24 -37c-52 -22 -73 -30 -110 -45c-9 -3 -14 -4 -17 1c-2 5 1 8 9 14z" />
    <glyph glyph-name="macron" unicode="&#xaf;" horiz-adv-x="414" 
d="M65 629h284v-12h-284v12z" />
    <glyph glyph-name="dieresis" unicode="&#xa8;" horiz-adv-x="342" 
d="M101 661c19 0 35 -13 35 -35s-16 -35 -35 -35s-36 13 -36 35s17 35 36 35zM242 661c19 0 35 -13 35 -35s-16 -35 -35 -35s-35 13 -35 35s16 35 35 35z" />
    <glyph glyph-name="breve" unicode="&#x2d8;" horiz-adv-x="368" 
d="M295 673l8 -2c-7 -50 -53 -95 -119 -95c-65 0 -111 45 -119 95l9 2c16 -44 52 -67 110 -67c59 0 94 23 111 67z" />
    <glyph glyph-name="dotaccent" unicode="&#x2d9;" horiz-adv-x="200" 
d="M100 661c19 0 35 -13 35 -35s-16 -35 -35 -35s-35 13 -35 35s16 35 35 35z" />
    <glyph glyph-name="tilde" unicode="&#x2dc;" horiz-adv-x="450" 
d="M152 660c28 0 54 -10 87 -25c30 -13 54 -28 81 -28c30 0 47 24 54 51h11c-9 -62 -39 -80 -81 -80c-26 0 -61 16 -96 31c-28 11 -47 17 -71 17s-47 -15 -61 -43h-11c10 57 40 77 87 77z" />
    <glyph glyph-name="circumflex" unicode="&#x2c6;" horiz-adv-x="423" 
d="M222 687l136 -122l-5 -7l-142 95l-141 -95l-5 7l135 122h22z" />
    <glyph glyph-name="ring" unicode="&#x2da;" horiz-adv-x="329" 
d="M164 740c53 0 100 -41 100 -97c0 -55 -47 -96 -100 -96c-52 0 -99 41 -99 96c0 56 47 97 99 97zM164 556c43 0 74 36 74 87s-31 88 -74 88c-42 0 -73 -37 -73 -88s31 -87 73 -87z" />
    <glyph glyph-name="caron" unicode="&#x2c7;" horiz-adv-x="423" 
d="M354 687l4 -7l-135 -122h-22l-136 122l5 7l142 -95z" />
    <glyph glyph-name="hungarumlaut" unicode="&#x2dd;" horiz-adv-x="404" 
d="M186 675c13 -12 9 -25 -11 -43c-43 -37 -61 -51 -92 -76c-7 -6 -12 -8 -16 -5c-3 4 -2 9 4 17c24 31 38 49 73 94c17 21 29 26 42 13zM331 675c13 -12 9 -25 -12 -43c-43 -37 -60 -51 -91 -76c-7 -6 -12 -8 -16 -5c-4 4 -2 9 4 17c24 31 37 49 72 94c17 21 30 26 43 13z
" />
    <glyph glyph-name="space" unicode=" " horiz-adv-x="200" 
 />
    <glyph glyph-name="Aacute" unicode="&#xc1;" horiz-adv-x="665" 
d="M593 62c13 -30 25 -49 52 -53v-9h-108v9c26 4 34 20 20 53l-76 180h-331l-68 -180c-12 -32 -7 -49 20 -53v-9h-82v9c26 5 36 18 48 47l220 582c11 30 15 50 -13 53v9h50zM155 254h321l-169 402zM262 787c32 23 51 36 98 68c22 15 36 15 44 -1c9 -15 1 -27 -24 -37
c-52 -22 -73 -30 -110 -45c-9 -3 -14 -4 -17 1c-2 5 1 8 9 14z" />
    <glyph glyph-name="Abreve" unicode="&#x102;" horiz-adv-x="665" 
d="M593 62c13 -30 25 -49 52 -53v-9h-108v9c26 4 34 20 20 53l-76 180h-331l-68 -180c-12 -32 -7 -49 20 -53v-9h-82v9c26 5 36 18 48 47l220 582c11 30 15 50 -13 53v9h50zM155 254h321l-169 402zM428 873l8 -2c-7 -50 -53 -95 -119 -95c-65 0 -111 45 -119 95l9 2
c16 -44 52 -67 110 -67c59 0 94 23 111 67z" />
    <glyph glyph-name="Acircumflex" unicode="&#xc2;" horiz-adv-x="665" 
d="M593 62c13 -30 25 -49 52 -53v-9h-108v9c26 4 34 20 20 53l-76 180h-331l-68 -180c-12 -32 -7 -49 20 -53v-9h-82v9c26 5 36 18 48 47l220 582c11 30 15 50 -13 53v9h50zM155 254h321l-169 402zM328 887l136 -122l-5 -7l-142 95l-141 -95l-5 7l135 122h22z" />
    <glyph glyph-name="Agrave" unicode="&#xc0;" horiz-adv-x="665" 
d="M593 62c13 -30 25 -49 52 -53v-9h-108v9c26 4 34 20 20 53l-76 180h-331l-68 -180c-12 -32 -7 -49 20 -53v-9h-82v9c26 5 36 18 48 47l220 582c11 30 15 50 -13 53v9h50zM155 254h321l-169 402zM381 787c8 -6 12 -9 9 -14s-8 -4 -17 -1c-37 15 -58 23 -110 45
c-25 10 -32 22 -24 37c8 16 22 16 44 1c48 -32 66 -45 98 -68z" />
    <glyph glyph-name="Adieresis" unicode="&#xc4;" horiz-adv-x="665" 
d="M593 62c13 -30 25 -49 52 -53v-9h-108v9c26 4 34 20 20 53l-76 180h-331l-68 -180c-12 -32 -7 -49 20 -53v-9h-82v9c26 5 36 18 48 47l220 582c11 30 15 50 -13 53v9h50zM155 254h321l-169 402zM247 861c19 0 35 -13 35 -35s-16 -35 -35 -35s-36 13 -36 35s17 35 36 35z
M388 861c19 0 35 -13 35 -35s-16 -35 -35 -35s-35 13 -35 35s16 35 35 35z" />
    <glyph glyph-name="Amacron" unicode="&#x100;" horiz-adv-x="665" 
d="M593 62c13 -30 25 -49 52 -53v-9h-108v9c26 4 34 20 20 53l-76 180h-331l-68 -180c-12 -32 -7 -49 20 -53v-9h-82v9c26 5 36 18 48 47l220 582c11 30 15 50 -13 53v9h50zM155 254h321l-169 402zM175 829h284v-12h-284v12z" />
    <glyph glyph-name="Aring" unicode="&#xc5;" horiz-adv-x="665" 
d="M593 62c13 -30 25 -49 52 -53v-9h-108v9c26 4 34 20 20 53l-76 180h-331l-68 -180c-12 -32 -7 -49 20 -53v-9h-82v9c26 5 36 18 48 47l220 582c11 30 15 50 -13 53v9h50zM155 254h321l-169 402zM317 940c53 0 100 -41 100 -97c0 -55 -47 -96 -100 -96
c-52 0 -99 41 -99 96c0 56 47 97 99 97zM317 756c43 0 74 36 74 87s-31 88 -74 88c-42 0 -73 -37 -73 -88s31 -87 73 -87z" />
    <glyph glyph-name="Atilde" unicode="&#xc3;" horiz-adv-x="665" 
d="M593 62c13 -30 25 -49 52 -53v-9h-108v9c26 4 34 20 20 53l-76 180h-331l-68 -180c-12 -32 -7 -49 20 -53v-9h-82v9c26 5 36 18 48 47l220 582c11 30 15 50 -13 53v9h50zM155 254h321l-169 402zM244 860c28 0 54 -10 87 -25c30 -13 54 -28 81 -28c30 0 47 24 54 51h11
c-9 -62 -39 -80 -81 -80c-26 0 -61 16 -96 31c-28 11 -47 17 -71 17s-47 -15 -61 -43h-11c10 57 40 77 87 77z" />
    <glyph glyph-name="AEacute" unicode="&#x1fc;" horiz-adv-x="950" 
d="M891 97h9l-18 -97h-451v9c32 2 34 18 34 53v179h-256l-113 -179c-18 -29 -21 -49 7 -53v-9h-83v9c29 4 44 20 64 53l363 576c18 28 12 49 -16 53v9h431l19 -97h-9c-15 48 -38 84 -111 84h-261v-324h196c58 0 68 17 72 48h9v-109h-9c-4 32 -14 49 -72 49h-196v-339h281
c72 0 95 36 110 85zM217 254h248v394zM440 787c32 23 51 36 98 68c22 15 36 15 44 -1c9 -15 1 -27 -24 -37c-52 -22 -73 -30 -110 -45c-9 -3 -14 -4 -17 1c-2 5 1 8 9 14z" />
    <glyph glyph-name="Cacute" unicode="&#x106;" horiz-adv-x="707" 
d="M648 167h9l-17 -99c-63 -50 -139 -78 -234 -78c-197 0 -361 151 -361 360c0 210 151 360 348 360c94 0 188 -35 248 -84v-92h-8c-21 113 -129 164 -240 164c-168 0 -312 -131 -312 -348c0 -216 157 -347 325 -347c111 0 210 52 242 164zM321 787c32 23 51 36 98 68
c22 15 36 15 44 -1c9 -15 1 -27 -24 -37c-52 -22 -73 -30 -110 -45c-9 -3 -14 -4 -17 1c-2 5 1 8 9 14z" />
    <glyph glyph-name="Ccaron" unicode="&#x10c;" horiz-adv-x="707" 
d="M648 167h9l-17 -99c-63 -50 -139 -78 -234 -78c-197 0 -361 151 -361 360c0 210 151 360 348 360c94 0 188 -35 248 -84v-92h-8c-21 113 -129 164 -240 164c-168 0 -312 -131 -312 -348c0 -216 157 -347 325 -347c111 0 210 52 242 164zM533 887l4 -7l-135 -122h-22
l-136 122l5 7l142 -95z" />
    <glyph glyph-name="Ccircumflex" unicode="&#x108;" horiz-adv-x="707" 
d="M648 167h9l-17 -99c-63 -50 -139 -78 -234 -78c-197 0 -361 151 -361 360c0 210 151 360 348 360c94 0 188 -35 248 -84v-92h-8c-21 113 -129 164 -240 164c-168 0 -312 -131 -312 -348c0 -216 157 -347 325 -347c111 0 210 52 242 164zM401 887l136 -122l-5 -7l-142 95
l-141 -95l-5 7l135 122h22z" />
    <glyph glyph-name="Cdotaccent" unicode="&#x10a;" horiz-adv-x="707" 
d="M648 167h9l-17 -99c-63 -50 -139 -78 -234 -78c-197 0 -361 151 -361 360c0 210 151 360 348 360c94 0 188 -35 248 -84v-92h-8c-21 113 -129 164 -240 164c-168 0 -312 -131 -312 -348c0 -216 157 -347 325 -347c111 0 210 52 242 164zM391 861c19 0 35 -13 35 -35
s-16 -35 -35 -35s-35 13 -35 35s16 35 35 35z" />
    <glyph glyph-name="Dcaron" unicode="&#x10e;" horiz-adv-x="717" 
d="M285 700c201 0 387 -106 387 -350c0 -243 -186 -350 -387 -350h-220v9c33 3 35 19 35 53v577c0 34 -2 50 -35 52v9h220zM279 13c204 0 357 106 357 337c0 232 -153 338 -357 338h-145v-675h145zM511 887l4 -7l-135 -122h-22l-136 122l5 7l142 -95z" />
    <glyph glyph-name="Eacute" unicode="&#xc9;" horiz-adv-x="585" 
d="M526 97h9l-19 -97h-451v9c33 3 35 19 35 53v577c0 34 -2 50 -35 52v9h432l18 -97h-9c-15 49 -38 85 -110 85h-262v-324h196c58 0 68 17 73 48h9v-109h-9c-5 32 -15 48 -73 48h-196v-338h281c73 0 96 36 111 84zM230 787c32 23 51 36 98 68c22 15 36 15 44 -1
c9 -15 1 -27 -24 -37c-52 -22 -73 -30 -110 -45c-9 -3 -14 -4 -17 1c-2 5 1 8 9 14z" />
    <glyph glyph-name="Ebreve" unicode="&#x114;" horiz-adv-x="585" 
d="M526 97h9l-19 -97h-451v9c33 3 35 19 35 53v577c0 34 -2 50 -35 52v9h432l18 -97h-9c-15 49 -38 85 -110 85h-262v-324h196c58 0 68 17 73 48h9v-109h-9c-5 32 -15 48 -73 48h-196v-338h281c73 0 96 36 111 84zM411 873l8 -2c-7 -50 -53 -95 -119 -95
c-65 0 -111 45 -119 95l9 2c16 -44 52 -67 110 -67c59 0 94 23 111 67z" />
    <glyph glyph-name="Ecaron" unicode="&#x11a;" horiz-adv-x="585" 
d="M526 97h9l-19 -97h-451v9c33 3 35 19 35 53v577c0 34 -2 50 -35 52v9h432l18 -97h-9c-15 49 -38 85 -110 85h-262v-324h196c58 0 68 17 73 48h9v-109h-9c-5 32 -15 48 -73 48h-196v-338h281c73 0 96 36 111 84zM442 887l4 -7l-135 -122h-22l-136 122l5 7l142 -95z" />
    <glyph glyph-name="Ecircumflex" unicode="&#xca;" horiz-adv-x="585" 
d="M526 97h9l-19 -97h-451v9c33 3 35 19 35 53v577c0 34 -2 50 -35 52v9h432l18 -97h-9c-15 49 -38 85 -110 85h-262v-324h196c58 0 68 17 73 48h9v-109h-9c-5 32 -15 48 -73 48h-196v-338h281c73 0 96 36 111 84zM310 887l136 -122l-5 -7l-142 95l-141 -95l-5 7l135 122h22
z" />
    <glyph glyph-name="Edieresis" unicode="&#xcb;" horiz-adv-x="585" 
d="M526 97h9l-19 -97h-451v9c33 3 35 19 35 53v577c0 34 -2 50 -35 52v9h432l18 -97h-9c-15 49 -38 85 -110 85h-262v-324h196c58 0 68 17 73 48h9v-109h-9c-5 32 -15 48 -73 48h-196v-338h281c73 0 96 36 111 84zM230 861c19 0 35 -13 35 -35s-16 -35 -35 -35
s-36 13 -36 35s17 35 36 35zM371 861c19 0 35 -13 35 -35s-16 -35 -35 -35s-35 13 -35 35s16 35 35 35z" />
    <glyph glyph-name="Edotaccent" unicode="&#x116;" horiz-adv-x="585" 
d="M526 97h9l-19 -97h-451v9c33 3 35 19 35 53v577c0 34 -2 50 -35 52v9h432l18 -97h-9c-15 49 -38 85 -110 85h-262v-324h196c58 0 68 17 73 48h9v-109h-9c-5 32 -15 48 -73 48h-196v-338h281c73 0 96 36 111 84zM300 861c19 0 35 -13 35 -35s-16 -35 -35 -35
s-35 13 -35 35s16 35 35 35z" />
    <glyph glyph-name="Egrave" unicode="&#xc8;" horiz-adv-x="585" 
d="M526 97h9l-19 -97h-451v9c33 3 35 19 35 53v577c0 34 -2 50 -35 52v9h432l18 -97h-9c-15 49 -38 85 -110 85h-262v-324h196c58 0 68 17 73 48h9v-109h-9c-5 32 -15 48 -73 48h-196v-338h281c73 0 96 36 111 84zM369 787c8 -6 12 -9 9 -14s-8 -4 -17 -1
c-37 15 -58 23 -110 45c-25 10 -32 22 -24 37c8 16 22 16 44 1c48 -32 66 -45 98 -68z" />
    <glyph glyph-name="Emacron" unicode="&#x112;" horiz-adv-x="585" 
d="M526 97h9l-19 -97h-451v9c33 3 35 19 35 53v577c0 34 -2 50 -35 52v9h432l18 -97h-9c-15 49 -38 85 -110 85h-262v-324h196c58 0 68 17 73 48h9v-109h-9c-5 32 -15 48 -73 48h-196v-338h281c73 0 96 36 111 84zM158 829h284v-12h-284v12z" />
    <glyph glyph-name="Gbreve" unicode="&#x11e;" horiz-adv-x="732" 
d="M590 281h102v-9c-32 -3 -34 -19 -34 -53v-143c-62 -55 -157 -86 -252 -86c-197 0 -361 151 -361 360c0 210 151 360 348 360c94 0 188 -35 248 -84v-92h-8c-21 113 -129 164 -240 164c-168 0 -312 -131 -312 -348c0 -216 157 -347 325 -347c94 0 179 40 218 84v132
c0 34 -2 50 -34 53v9zM499 873l8 -2c-7 -50 -53 -95 -119 -95c-65 0 -111 45 -119 95l9 2c16 -44 52 -67 110 -67c59 0 94 23 111 67z" />
    <glyph glyph-name="Gcircumflex" unicode="&#x11c;" horiz-adv-x="732" 
d="M590 281h102v-9c-32 -3 -34 -19 -34 -53v-143c-62 -55 -157 -86 -252 -86c-197 0 -361 151 -361 360c0 210 151 360 348 360c94 0 188 -35 248 -84v-92h-8c-21 113 -129 164 -240 164c-168 0 -312 -131 -312 -348c0 -216 157 -347 325 -347c94 0 179 40 218 84v132
c0 34 -2 50 -34 53v9zM399 887l136 -122l-5 -7l-142 95l-141 -95l-5 7l135 122h22z" />
    <glyph glyph-name="Gcommaaccent" unicode="&#x122;" horiz-adv-x="732" 
d="M590 281h102v-9c-32 -3 -34 -19 -34 -53v-143c-62 -55 -157 -86 -252 -86c-197 0 -361 151 -361 360c0 210 151 360 348 360c94 0 188 -35 248 -84v-92h-8c-21 113 -129 164 -240 164c-168 0 -312 -131 -312 -348c0 -216 157 -347 325 -347c94 0 179 40 218 84v132
c0 34 -2 50 -34 53v9zM392 -100c19 0 35 -15 35 -39c2 -54 -46 -122 -70 -140l-10 10c35 35 49 71 51 100h-6c-19 0 -35 13 -35 35c0 21 16 34 35 34z" />
    <glyph glyph-name="Gdotaccent" unicode="&#x120;" horiz-adv-x="732" 
d="M590 281h102v-9c-32 -3 -34 -19 -34 -53v-143c-62 -55 -157 -86 -252 -86c-197 0 -361 151 -361 360c0 210 151 360 348 360c94 0 188 -35 248 -84v-92h-8c-21 113 -129 164 -240 164c-168 0 -312 -131 -312 -348c0 -216 157 -347 325 -347c94 0 179 40 218 84v132
c0 34 -2 50 -34 53v9zM388 861c19 0 35 -13 35 -35s-16 -35 -35 -35s-35 13 -35 35s16 35 35 35z" />
    <glyph glyph-name="Hcircumflex" unicode="&#x124;" horiz-adv-x="735" 
d="M670 691c-32 -2 -34 -18 -34 -52v-577c0 -34 2 -50 34 -53v-9h-103v9c32 3 35 19 35 53v282h-469v-282c0 -34 2 -50 35 -53v-9h-103v9c32 3 34 19 34 53v577c0 34 -2 50 -34 52v9h103v-9c-33 -2 -35 -18 -35 -52v-283h469v283c0 34 -3 50 -35 52v9h103v-9zM378 887
l136 -122l-5 -7l-142 95l-141 -95l-5 7l135 122h22z" />
    <glyph glyph-name="Iacute" unicode="&#xcd;" horiz-adv-x="233" 
d="M168 691c-32 -2 -35 -18 -35 -52v-577c0 -34 3 -50 35 -53v-9h-103v9c32 3 34 19 34 53v577c0 34 -2 50 -34 52v9h103v-9zM47 787c32 23 51 36 98 68c22 15 36 15 44 -1c9 -15 1 -27 -24 -37c-52 -22 -73 -30 -110 -45c-9 -3 -14 -4 -17 1c-2 5 1 8 9 14z" />
    <glyph glyph-name="Ibreve" unicode="&#x12c;" horiz-adv-x="233" 
d="M168 691c-32 -2 -35 -18 -35 -52v-577c0 -34 3 -50 35 -53v-9h-103v9c32 3 34 19 34 53v577c0 34 -2 50 -34 52v9h103v-9zM228 873l8 -2c-7 -50 -53 -95 -119 -95c-65 0 -111 45 -119 95l9 2c16 -44 52 -67 110 -67c59 0 94 23 111 67z" />
    <glyph glyph-name="Icircumflex" unicode="&#xce;" horiz-adv-x="233" 
d="M168 691c-32 -2 -35 -18 -35 -52v-577c0 -34 3 -50 35 -53v-9h-103v9c32 3 34 19 34 53v577c0 34 -2 50 -34 52v9h103v-9zM127 887l136 -122l-5 -7l-142 95l-141 -95l-5 7l135 122h22z" />
    <glyph glyph-name="Idieresis" unicode="&#xcf;" horiz-adv-x="233" 
d="M168 691c-32 -2 -35 -18 -35 -52v-577c0 -34 3 -50 35 -53v-9h-103v9c32 3 34 19 34 53v577c0 34 -2 50 -34 52v9h103v-9zM47 861c19 0 35 -13 35 -35s-16 -35 -35 -35s-36 13 -36 35s17 35 36 35zM188 861c19 0 35 -13 35 -35s-16 -35 -35 -35s-35 13 -35 35
s16 35 35 35z" />
    <glyph glyph-name="Idotaccent" unicode="&#x130;" horiz-adv-x="233" 
d="M168 691c-32 -2 -35 -18 -35 -52v-577c0 -34 3 -50 35 -53v-9h-103v9c32 3 34 19 34 53v577c0 34 -2 50 -34 52v9h103v-9zM116 861c19 0 35 -13 35 -35s-16 -35 -35 -35s-35 13 -35 35s16 35 35 35z" />
    <glyph glyph-name="Igrave" unicode="&#xcc;" horiz-adv-x="233" 
d="M168 691c-32 -2 -35 -18 -35 -52v-577c0 -34 3 -50 35 -53v-9h-103v9c32 3 34 19 34 53v577c0 34 -2 50 -34 52v9h103v-9zM186 787c8 -6 12 -9 9 -14s-8 -4 -17 -1c-37 15 -58 23 -110 45c-25 10 -32 22 -24 37c8 16 22 16 44 1c48 -32 66 -45 98 -68z" />
    <glyph glyph-name="Imacron" unicode="&#x12a;" horiz-adv-x="233" 
d="M168 691c-32 -2 -35 -18 -35 -52v-577c0 -34 3 -50 35 -53v-9h-103v9c32 3 34 19 34 53v577c0 34 -2 50 -34 52v9h103v-9zM-25 829h284v-12h-284v12z" />
    <glyph glyph-name="Itilde" unicode="&#x128;" horiz-adv-x="233" 
d="M168 691c-32 -2 -35 -18 -35 -52v-577c0 -34 3 -50 35 -53v-9h-103v9c32 3 34 19 34 53v577c0 34 -2 50 -34 52v9h103v-9zM44 860c28 0 54 -10 87 -25c30 -13 54 -28 81 -28c30 0 47 24 54 51h11c-9 -62 -39 -80 -81 -80c-26 0 -61 16 -96 31c-28 11 -47 17 -71 17
s-47 -15 -61 -43h-11c10 57 40 77 87 77z" />
    <glyph glyph-name="IJ" unicode="&#x132;" horiz-adv-x="685" 
d="M168 691c-32 -2 -35 -18 -35 -52v-577c0 -34 3 -50 35 -53v-9h-103v9c32 3 34 19 34 53v577c0 34 -2 50 -34 52v9h103v-9zM532 700h103v-9c-32 -2 -34 -18 -34 -52v-428c0 -143 -57 -221 -181 -221c-77 0 -140 51 -156 93c-8 21 -7 39 6 47c9 5 22 3 27 -5
c8 -12 1 -22 1 -35c2 -33 40 -87 122 -87c107 0 146 88 146 210v426c0 34 -2 50 -34 52v9z" />
    <glyph glyph-name="Jcircumflex" unicode="&#x134;" horiz-adv-x="457" 
d="M304 700h103v-9c-32 -2 -34 -18 -34 -52v-428c0 -143 -57 -221 -181 -221c-77 0 -140 51 -156 93c-8 21 -7 39 6 47c9 5 22 3 27 -5c8 -12 1 -22 1 -35c2 -33 40 -87 122 -87c107 0 146 88 146 210v426c0 34 -2 50 -34 52v9zM259 887l136 -122l-5 -7l-142 95l-141 -95
l-5 7l135 122h22z" />
    <glyph glyph-name="Kcommaaccent" unicode="&#x136;" horiz-adv-x="674" 
d="M590 62c17 -26 34 -46 64 -53v-9h-113v9c27 3 32 21 11 53l-240 362l-179 -190v-172c0 -34 3 -50 35 -53v-9h-103v9c32 3 34 19 34 53v576c0 35 -2 51 -34 53v9h103v-9c-32 -2 -35 -18 -35 -53v-384l367 386c27 28 35 47 13 51v9h74v-9c-29 -7 -39 -18 -66 -46l-186 -197
zM322 -100c19 0 35 -15 35 -39c2 -54 -46 -122 -70 -140l-10 10c35 35 49 71 51 100h-6c-19 0 -35 13 -35 35c0 21 16 34 35 34z" />
    <glyph glyph-name="Lacute" unicode="&#x139;" horiz-adv-x="569" 
d="M525 97h9l-18 -97h-451v9c32 3 34 19 34 53v577c0 34 -2 50 -34 52v9h103v-9c-33 -2 -35 -18 -35 -52v-626h282c72 0 95 36 110 84zM39 787c32 23 51 36 98 68c22 15 36 15 44 -1c9 -15 1 -27 -24 -37c-52 -22 -73 -30 -110 -45c-9 -3 -14 -4 -17 1c-2 5 1 8 9 14z" />
    <glyph glyph-name="Lcaron" unicode="&#x13d;" horiz-adv-x="569" 
d="M525 97h9l-18 -97h-451v9c32 3 34 19 34 53v577c0 34 -2 50 -34 52v9h103v-9c-33 -2 -35 -18 -35 -52v-626h282c72 0 95 36 110 84zM365 710c19 0 35 -15 35 -39c2 -54 -46 -122 -70 -140l-10 10c35 35 50 71 51 100h-6c-19 0 -35 13 -35 35s16 34 35 34z" />
    <glyph glyph-name="Lcommaaccent" unicode="&#x13b;" horiz-adv-x="569" 
d="M525 97h9l-18 -97h-451v9c32 3 34 19 34 53v577c0 34 -2 50 -34 52v9h103v-9c-33 -2 -35 -18 -35 -52v-626h282c72 0 95 36 110 84zM303 -100c19 0 35 -15 35 -39c2 -54 -46 -122 -70 -140l-10 10c35 35 49 71 51 100h-6c-19 0 -35 13 -35 35c0 21 16 34 35 34z" />
    <glyph glyph-name="Ldot" unicode="&#x13f;" horiz-adv-x="569" 
d="M525 97h9l-18 -97h-451v9c32 3 34 19 34 53v577c0 34 -2 50 -34 52v9h103v-9c-33 -2 -35 -18 -35 -52v-626h282c72 0 95 36 110 84zM367 402c19 0 35 -13 35 -35s-16 -35 -35 -35s-35 13 -35 35s16 35 35 35z" />
    <glyph glyph-name="Nacute" unicode="&#x143;" horiz-adv-x="710" 
d="M570 700h80v-9c-32 -2 -34 -18 -34 -52v-639h-13l-492 641v-579c0 -34 3 -50 35 -53v-9h-81v9c32 3 34 19 34 53v577c0 34 -2 50 -34 52v9h48l491 -641v580c0 34 -2 50 -34 52v9zM307 787c32 23 51 36 98 68c22 15 36 15 44 -1c9 -15 1 -27 -24 -37
c-52 -22 -73 -30 -110 -45c-9 -3 -14 -4 -17 1c-2 5 1 8 9 14z" />
    <glyph glyph-name="Ncaron" unicode="&#x147;" horiz-adv-x="710" 
d="M570 700h80v-9c-32 -2 -34 -18 -34 -52v-639h-13l-492 641v-579c0 -34 3 -50 35 -53v-9h-81v9c32 3 34 19 34 53v577c0 34 -2 50 -34 52v9h48l491 -641v580c0 34 -2 50 -34 52v9zM520 887l4 -7l-135 -122h-22l-136 122l5 7l142 -95z" />
    <glyph glyph-name="Ncommaaccent" unicode="&#x145;" horiz-adv-x="710" 
d="M570 700h80v-9c-32 -2 -34 -18 -34 -52v-639h-13l-492 641v-579c0 -34 3 -50 35 -53v-9h-81v9c32 3 34 19 34 53v577c0 34 -2 50 -34 52v9h48l491 -641v580c0 34 -2 50 -34 52v9zM371 -100c19 0 35 -15 35 -39c2 -54 -46 -122 -70 -140l-10 10c35 35 49 71 51 100h-6
c-19 0 -35 13 -35 35c0 21 16 34 35 34z" />
    <glyph glyph-name="Ntilde" unicode="&#xd1;" horiz-adv-x="710" 
d="M570 700h80v-9c-32 -2 -34 -18 -34 -52v-639h-13l-492 641v-579c0 -34 3 -50 35 -53v-9h-81v9c32 3 34 19 34 53v577c0 34 -2 50 -34 52v9h48l491 -641v580c0 34 -2 50 -34 52v9zM294 860c28 0 54 -10 87 -25c30 -13 54 -28 81 -28c30 0 47 24 54 51h11
c-9 -62 -39 -80 -81 -80c-26 0 -61 16 -96 31c-28 11 -47 17 -71 17s-47 -15 -61 -43h-11c10 57 40 77 87 77z" />
    <glyph glyph-name="Oacute" unicode="&#xd3;" horiz-adv-x="810" 
d="M405 710c202 0 360 -149 360 -360c0 -210 -158 -360 -360 -360s-360 150 -360 360c0 211 158 360 360 360zM405 3c165 0 323 119 323 347c0 229 -158 348 -323 348s-323 -119 -323 -348c0 -228 158 -347 323 -347zM335 787c32 23 51 36 98 68c22 15 36 15 44 -1
c9 -15 1 -27 -24 -37c-52 -22 -73 -30 -110 -45c-9 -3 -14 -4 -17 1c-2 5 1 8 9 14z" />
    <glyph glyph-name="Obreve" unicode="&#x14e;" horiz-adv-x="810" 
d="M405 710c202 0 360 -149 360 -360c0 -210 -158 -360 -360 -360s-360 150 -360 360c0 211 158 360 360 360zM405 3c165 0 323 119 323 347c0 229 -158 348 -323 348s-323 -119 -323 -348c0 -228 158 -347 323 -347zM516 873l8 -2c-7 -50 -53 -95 -119 -95
c-65 0 -111 45 -119 95l9 2c16 -44 52 -67 110 -67c59 0 94 23 111 67z" />
    <glyph glyph-name="Ocircumflex" unicode="&#xd4;" horiz-adv-x="810" 
d="M405 710c202 0 360 -149 360 -360c0 -210 -158 -360 -360 -360s-360 150 -360 360c0 211 158 360 360 360zM405 3c165 0 323 119 323 347c0 229 -158 348 -323 348s-323 -119 -323 -348c0 -228 158 -347 323 -347zM415 887l136 -122l-5 -7l-142 95l-141 -95l-5 7l135 122
h22z" />
    <glyph glyph-name="Odieresis" unicode="&#xd6;" horiz-adv-x="810" 
d="M405 710c202 0 360 -149 360 -360c0 -210 -158 -360 -360 -360s-360 150 -360 360c0 211 158 360 360 360zM405 3c165 0 323 119 323 347c0 229 -158 348 -323 348s-323 -119 -323 -348c0 -228 158 -347 323 -347zM335 861c19 0 35 -13 35 -35s-16 -35 -35 -35
s-36 13 -36 35s17 35 36 35zM476 861c19 0 35 -13 35 -35s-16 -35 -35 -35s-35 13 -35 35s16 35 35 35z" />
    <glyph glyph-name="Ograve" unicode="&#xd2;" horiz-adv-x="810" 
d="M405 710c202 0 360 -149 360 -360c0 -210 -158 -360 -360 -360s-360 150 -360 360c0 211 158 360 360 360zM405 3c165 0 323 119 323 347c0 229 -158 348 -323 348s-323 -119 -323 -348c0 -228 158 -347 323 -347zM474 787c8 -6 12 -9 9 -14s-8 -4 -17 -1
c-37 15 -58 23 -110 45c-25 10 -32 22 -24 37c8 16 22 16 44 1c48 -32 66 -45 98 -68z" />
    <glyph glyph-name="Ohungarumlaut" unicode="&#x150;" horiz-adv-x="810" 
d="M405 710c202 0 360 -149 360 -360c0 -210 -158 -360 -360 -360s-360 150 -360 360c0 211 158 360 360 360zM405 3c165 0 323 119 323 347c0 229 -158 348 -323 348s-323 -119 -323 -348c0 -228 158 -347 323 -347zM387 875c13 -12 9 -25 -11 -43c-43 -37 -61 -51 -92 -76
c-7 -6 -12 -8 -16 -5c-3 4 -2 9 4 17c24 31 38 49 73 94c17 21 29 26 42 13zM532 875c13 -12 9 -25 -12 -43c-43 -37 -60 -51 -91 -76c-7 -6 -12 -8 -16 -5c-4 4 -2 9 4 17c24 31 37 49 72 94c17 21 30 26 43 13z" />
    <glyph glyph-name="Omacron" unicode="&#x14c;" horiz-adv-x="810" 
d="M405 710c202 0 360 -149 360 -360c0 -210 -158 -360 -360 -360s-360 150 -360 360c0 211 158 360 360 360zM405 3c165 0 323 119 323 347c0 229 -158 348 -323 348s-323 -119 -323 -348c0 -228 158 -347 323 -347zM263 829h284v-12h-284v12z" />
    <glyph glyph-name="Oslashacute" unicode="&#x1fe;" horiz-adv-x="810" 
d="M665 604c62 -64 99 -152 99 -254c0 -211 -157 -360 -360 -360c-100 0 -189 36 -254 99l-73 -73l-9 8l74 74c-61 63 -97 150 -97 252c0 210 157 360 359 360c100 0 188 -36 252 -98l75 75l9 -8zM81 350c0 -100 30 -178 78 -236l481 482c-61 67 -147 101 -236 101
c-165 0 -323 -119 -323 -347zM404 2c165 0 323 120 323 348c0 100 -30 179 -79 237l-481 -482c61 -68 148 -103 237 -103zM335 787c32 23 51 36 98 68c22 15 36 15 44 -1c9 -15 1 -27 -24 -37c-52 -22 -73 -30 -110 -45c-9 -3 -14 -4 -17 1c-2 5 1 8 9 14z" />
    <glyph glyph-name="Otilde" unicode="&#xd5;" horiz-adv-x="810" 
d="M405 710c202 0 360 -149 360 -360c0 -210 -158 -360 -360 -360s-360 150 -360 360c0 211 158 360 360 360zM405 3c165 0 323 119 323 347c0 229 -158 348 -323 348s-323 -119 -323 -348c0 -228 158 -347 323 -347zM332 860c28 0 54 -10 87 -25c30 -13 54 -28 81 -28
c30 0 47 24 54 51h11c-9 -62 -39 -80 -81 -80c-26 0 -61 16 -96 31c-28 11 -47 17 -71 17s-47 -15 -61 -43h-11c10 57 40 77 87 77z" />
    <glyph glyph-name="Racute" unicode="&#x154;" horiz-adv-x="608" 
d="M522 62c19 -26 37 -46 66 -53v-9h-58l-227 306c-14 -1 -28 -1 -42 -1h-128v-243c0 -34 2 -50 34 -53v-9h-102v9c32 3 34 19 34 53v576c0 35 -2 51 -34 53v9h196c163 0 264 -74 264 -198c0 -103 -70 -171 -188 -191zM254 317c160 0 236 68 236 185s-76 186 -236 186h-121
v-371h121zM241 787c32 23 51 36 98 68c22 15 36 15 44 -1c9 -15 1 -27 -24 -37c-52 -22 -73 -30 -110 -45c-9 -3 -14 -4 -17 1c-2 5 1 8 9 14z" />
    <glyph glyph-name="Rcaron" unicode="&#x158;" horiz-adv-x="608" 
d="M522 62c19 -26 37 -46 66 -53v-9h-58l-227 306c-14 -1 -28 -1 -42 -1h-128v-243c0 -34 2 -50 34 -53v-9h-102v9c32 3 34 19 34 53v576c0 35 -2 51 -34 53v9h196c163 0 264 -74 264 -198c0 -103 -70 -171 -188 -191zM254 317c160 0 236 68 236 185s-76 186 -236 186h-121
v-371h121zM454 887l4 -7l-135 -122h-22l-136 122l5 7l142 -95z" />
    <glyph glyph-name="Rcommaaccent" unicode="&#x156;" horiz-adv-x="608" 
d="M522 62c19 -26 37 -46 66 -53v-9h-58l-227 306c-14 -1 -28 -1 -42 -1h-128v-243c0 -34 2 -50 34 -53v-9h-102v9c32 3 34 19 34 53v576c0 35 -2 51 -34 53v9h196c163 0 264 -74 264 -198c0 -103 -70 -171 -188 -191zM254 317c160 0 236 68 236 185s-76 186 -236 186h-121
v-371h121zM325 -100c19 0 35 -15 35 -39c2 -54 -46 -122 -70 -140l-10 10c35 35 49 71 51 100h-6c-19 0 -35 13 -35 35c0 21 16 34 35 34z" />
    <glyph glyph-name="Sacute" unicode="&#x15a;" horiz-adv-x="581" 
d="M129 573c-40 -216 448 -184 398 -422c-22 -100 -98 -161 -228 -161c-91 0 -185 26 -249 74v99h8c32 -118 135 -156 241 -161c93 -4 180 41 197 120c56 253 -457 187 -396 456c18 78 103 132 196 132c73 0 139 -26 203 -75v-86h-8c-31 105 -100 149 -195 149
c-81 0 -151 -41 -167 -125zM250 787c32 23 51 36 98 68c22 15 36 15 44 -1c9 -15 1 -27 -24 -37c-52 -22 -73 -30 -110 -45c-9 -3 -14 -4 -17 1c-2 5 1 8 9 14z" />
    <glyph glyph-name="Scaron" unicode="&#x160;" horiz-adv-x="581" 
d="M129 573c-40 -216 448 -184 398 -422c-22 -100 -98 -161 -228 -161c-91 0 -185 26 -249 74v99h8c32 -118 135 -156 241 -161c93 -4 180 41 197 120c56 253 -457 187 -396 456c18 78 103 132 196 132c73 0 139 -26 203 -75v-86h-8c-31 105 -100 149 -195 149
c-81 0 -151 -41 -167 -125zM443 887l4 -7l-135 -122h-22l-136 122l5 7l142 -95z" />
    <glyph glyph-name="Scircumflex" unicode="&#x15c;" horiz-adv-x="581" 
d="M129 573c-40 -216 448 -184 398 -422c-22 -100 -98 -161 -228 -161c-91 0 -185 26 -249 74v99h8c32 -118 135 -156 241 -161c93 -4 180 41 197 120c56 253 -457 187 -396 456c18 78 103 132 196 132c73 0 139 -26 203 -75v-86h-8c-31 105 -100 149 -195 149
c-81 0 -151 -41 -167 -125zM311 887l136 -122l-5 -7l-142 95l-141 -95l-5 7l135 122h22z" />
    <glyph glyph-name="Scommaaccent" unicode="&#x218;" horiz-adv-x="581" 
d="M129 573c-40 -216 448 -184 398 -422c-22 -100 -98 -161 -228 -161c-91 0 -185 26 -249 74v99h8c32 -118 135 -156 241 -161c93 -4 180 41 197 120c56 253 -457 187 -396 456c18 78 103 132 196 132c73 0 139 -26 203 -75v-86h-8c-31 105 -100 149 -195 149
c-81 0 -151 -41 -167 -125zM311 -100c19 0 35 -15 35 -39c2 -54 -46 -122 -70 -140l-10 10c35 35 49 71 51 100h-6c-19 0 -35 13 -35 35c0 21 16 34 35 34z" />
    <glyph glyph-name="Tcaron" unicode="&#x164;" horiz-adv-x="640" 
d="M581 700l19 -97h-9c-15 48 -38 84 -110 84h-144v-626c0 -34 2 -50 34 -52v-9h-103v9c33 2 35 18 35 52v626h-144c-72 0 -95 -36 -110 -84h-9l18 97h523zM462 887l4 -7l-135 -122h-22l-136 122l5 7l142 -95z" />
    <glyph glyph-name="Tcommaaccent" unicode="&#x162;" horiz-adv-x="640" 
d="M581 700l19 -97h-9c-15 48 -38 84 -110 84h-144v-626c0 -34 2 -50 34 -52v-9h-103v9c33 2 35 18 35 52v626h-144c-72 0 -95 -36 -110 -84h-9l18 97h523zM324 -100c19 0 35 -15 35 -39c2 -54 -46 -122 -70 -140l-10 10c35 35 49 71 51 100h-6c-19 0 -35 13 -35 35
c0 21 16 34 35 34z" />
    <glyph glyph-name="Uacute" unicode="&#xda;" horiz-adv-x="720" 
d="M579 700h81v-9c-32 -3 -34 -19 -34 -53v-375c0 -116 -61 -273 -247 -273c-166 0 -280 97 -280 273v375c0 34 -2 50 -34 53v9h103v-9c-32 -3 -34 -19 -34 -53v-375c0 -165 111 -255 250 -255c173 0 230 149 230 255v375c0 34 -3 50 -35 53v9zM322 787c32 23 51 36 98 68
c22 15 36 15 44 -1c9 -15 1 -27 -24 -37c-52 -22 -73 -30 -110 -45c-9 -3 -14 -4 -17 1c-2 5 1 8 9 14z" />
    <glyph glyph-name="Ubreve" unicode="&#x16c;" horiz-adv-x="720" 
d="M579 700h81v-9c-32 -3 -34 -19 -34 -53v-375c0 -116 -61 -273 -247 -273c-166 0 -280 97 -280 273v375c0 34 -2 50 -34 53v9h103v-9c-32 -3 -34 -19 -34 -53v-375c0 -165 111 -255 250 -255c173 0 230 149 230 255v375c0 34 -3 50 -35 53v9zM493 873l8 -2
c-7 -50 -53 -95 -119 -95c-65 0 -111 45 -119 95l9 2c16 -44 52 -67 110 -67c59 0 94 23 111 67z" />
    <glyph glyph-name="Ucircumflex" unicode="&#xdb;" horiz-adv-x="720" 
d="M579 700h81v-9c-32 -3 -34 -19 -34 -53v-375c0 -116 -61 -273 -247 -273c-166 0 -280 97 -280 273v375c0 34 -2 50 -34 53v9h103v-9c-32 -3 -34 -19 -34 -53v-375c0 -165 111 -255 250 -255c173 0 230 149 230 255v375c0 34 -3 50 -35 53v9zM393 887l136 -122l-5 -7
l-142 95l-141 -95l-5 7l135 122h22z" />
    <glyph glyph-name="Udieresis" unicode="&#xdc;" horiz-adv-x="720" 
d="M579 700h81v-9c-32 -3 -34 -19 -34 -53v-375c0 -116 -61 -273 -247 -273c-166 0 -280 97 -280 273v375c0 34 -2 50 -34 53v9h103v-9c-32 -3 -34 -19 -34 -53v-375c0 -165 111 -255 250 -255c173 0 230 149 230 255v375c0 34 -3 50 -35 53v9zM312 861c19 0 35 -13 35 -35
s-16 -35 -35 -35s-36 13 -36 35s17 35 36 35zM453 861c19 0 35 -13 35 -35s-16 -35 -35 -35s-35 13 -35 35s16 35 35 35z" />
    <glyph glyph-name="Ugrave" unicode="&#xd9;" horiz-adv-x="720" 
d="M579 700h81v-9c-32 -3 -34 -19 -34 -53v-375c0 -116 -61 -273 -247 -273c-166 0 -280 97 -280 273v375c0 34 -2 50 -34 53v9h103v-9c-32 -3 -34 -19 -34 -53v-375c0 -165 111 -255 250 -255c173 0 230 149 230 255v375c0 34 -3 50 -35 53v9zM441 787c8 -6 12 -9 9 -14
s-8 -4 -17 -1c-37 15 -58 23 -110 45c-25 10 -32 22 -24 37c8 16 22 16 44 1c48 -32 66 -45 98 -68z" />
    <glyph glyph-name="Uhungarumlaut" unicode="&#x170;" horiz-adv-x="720" 
d="M579 700h81v-9c-32 -3 -34 -19 -34 -53v-375c0 -116 -61 -273 -247 -273c-166 0 -280 97 -280 273v375c0 34 -2 50 -34 53v9h103v-9c-32 -3 -34 -19 -34 -53v-375c0 -165 111 -255 250 -255c173 0 230 149 230 255v375c0 34 -3 50 -35 53v9zM394 875
c13 -12 9 -25 -11 -43c-43 -37 -61 -51 -92 -76c-7 -6 -12 -8 -16 -5c-3 4 -2 9 4 17c24 31 38 49 73 94c17 21 29 26 42 13zM539 875c13 -12 9 -25 -12 -43c-43 -37 -60 -51 -91 -76c-7 -6 -12 -8 -16 -5c-4 4 -2 9 4 17c24 31 37 49 72 94c17 21 30 26 43 13z" />
    <glyph glyph-name="Umacron" unicode="&#x16a;" horiz-adv-x="720" 
d="M579 700h81v-9c-32 -3 -34 -19 -34 -53v-375c0 -116 -61 -273 -247 -273c-166 0 -280 97 -280 273v375c0 34 -2 50 -34 53v9h103v-9c-32 -3 -34 -19 -34 -53v-375c0 -165 111 -255 250 -255c173 0 230 149 230 255v375c0 34 -3 50 -35 53v9zM240 829h284v-12h-284v12z
" />
    <glyph glyph-name="Uring" unicode="&#x16e;" horiz-adv-x="720" 
d="M579 700h81v-9c-32 -3 -34 -19 -34 -53v-375c0 -116 -61 -273 -247 -273c-166 0 -280 97 -280 273v375c0 34 -2 50 -34 53v9h103v-9c-32 -3 -34 -19 -34 -53v-375c0 -165 111 -255 250 -255c173 0 230 149 230 255v375c0 34 -3 50 -35 53v9zM382 940
c53 0 100 -41 100 -97c0 -55 -47 -96 -100 -96c-52 0 -99 41 -99 96c0 56 47 97 99 97zM382 756c43 0 74 36 74 87s-31 88 -74 88c-42 0 -73 -37 -73 -88s31 -87 73 -87z" />
    <glyph glyph-name="Utilde" unicode="&#x168;" horiz-adv-x="720" 
d="M579 700h81v-9c-32 -3 -34 -19 -34 -53v-375c0 -116 -61 -273 -247 -273c-166 0 -280 97 -280 273v375c0 34 -2 50 -34 53v9h103v-9c-32 -3 -34 -19 -34 -53v-375c0 -165 111 -255 250 -255c173 0 230 149 230 255v375c0 34 -3 50 -35 53v9zM309 860c28 0 54 -10 87 -25
c30 -13 54 -28 81 -28c30 0 47 24 54 51h11c-9 -62 -39 -80 -81 -80c-26 0 -61 16 -96 31c-28 11 -47 17 -71 17s-47 -15 -61 -43h-11c10 57 40 77 87 77z" />
    <glyph glyph-name="Wacute" unicode="&#x1e82;" horiz-adv-x="993" 
d="M891 700h82v-9c-28 -5 -40 -20 -50 -53l-202 -638h-12l-212 639l-192 -639h-13l-219 638c-11 31 -25 49 -53 53v9h109v-9c-25 -4 -33 -19 -25 -47l203 -596l196 652h9l215 -645l183 583c10 32 8 49 -19 53v9zM456 787c32 23 51 36 98 68c22 15 36 15 44 -1
c9 -15 1 -27 -24 -37c-52 -22 -73 -30 -110 -45c-9 -3 -14 -4 -17 1c-2 5 1 8 9 14z" />
    <glyph glyph-name="Wcircumflex" unicode="&#x174;" horiz-adv-x="993" 
d="M891 700h82v-9c-28 -5 -40 -20 -50 -53l-202 -638h-12l-212 639l-192 -639h-13l-219 638c-11 31 -25 49 -53 53v9h109v-9c-25 -4 -33 -19 -25 -47l203 -596l196 652h9l215 -645l183 583c10 32 8 49 -19 53v9zM517 887l136 -122l-5 -7l-142 95l-141 -95l-5 7l135 122h22z
" />
    <glyph glyph-name="Wdieresis" unicode="&#x1e84;" horiz-adv-x="993" 
d="M891 700h82v-9c-28 -5 -40 -20 -50 -53l-202 -638h-12l-212 639l-192 -639h-13l-219 638c-11 31 -25 49 -53 53v9h109v-9c-25 -4 -33 -19 -25 -47l203 -596l196 652h9l215 -645l183 583c10 32 8 49 -19 53v9zM436 861c19 0 35 -13 35 -35s-16 -35 -35 -35s-36 13 -36 35
s17 35 36 35zM577 861c19 0 35 -13 35 -35s-16 -35 -35 -35s-35 13 -35 35s16 35 35 35z" />
    <glyph glyph-name="Wgrave" unicode="&#x1e80;" horiz-adv-x="993" 
d="M891 700h82v-9c-28 -5 -40 -20 -50 -53l-202 -638h-12l-212 639l-192 -639h-13l-219 638c-11 31 -25 49 -53 53v9h109v-9c-25 -4 -33 -19 -25 -47l203 -596l196 652h9l215 -645l183 583c10 32 8 49 -19 53v9zM555 787c8 -6 12 -9 9 -14s-8 -4 -17 -1
c-37 15 -58 23 -110 45c-25 10 -32 22 -24 37c8 16 22 16 44 1c48 -32 66 -45 98 -68z" />
    <glyph glyph-name="Yacute" unicode="&#xdd;" horiz-adv-x="593" 
d="M489 700h84v-9c-28 -5 -41 -16 -58 -47l-194 -359v-224c0 -34 3 -50 35 -52v-9h-103v9c32 2 34 18 34 52v220l-211 361c-17 29 -28 45 -56 49v9h106v-9c-23 -2 -33 -16 -15 -47l204 -348v0l188 348c13 25 13 43 -14 47v9zM236 787c32 23 51 36 98 68c22 15 36 15 44 -1
c9 -15 1 -27 -24 -37c-52 -22 -73 -30 -110 -45c-9 -3 -14 -4 -17 1c-2 5 1 8 9 14z" />
    <glyph glyph-name="Ycircumflex" unicode="&#x176;" horiz-adv-x="593" 
d="M489 700h84v-9c-28 -5 -41 -16 -58 -47l-194 -359v-224c0 -34 3 -50 35 -52v-9h-103v9c32 2 34 18 34 52v220l-211 361c-17 29 -28 45 -56 49v9h106v-9c-23 -2 -33 -16 -15 -47l204 -348v0l188 348c13 25 13 43 -14 47v9zM317 887l136 -122l-5 -7l-142 95l-141 -95l-5 7
l135 122h22z" />
    <glyph glyph-name="Ydieresis" unicode="&#x178;" horiz-adv-x="593" 
d="M489 700h84v-9c-28 -5 -41 -16 -58 -47l-194 -359v-224c0 -34 3 -50 35 -52v-9h-103v9c32 2 34 18 34 52v220l-211 361c-17 29 -28 45 -56 49v9h106v-9c-23 -2 -33 -16 -15 -47l204 -348v0l188 348c13 25 13 43 -14 47v9zM236 861c19 0 35 -13 35 -35s-16 -35 -35 -35
s-36 13 -36 35s17 35 36 35zM377 861c19 0 35 -13 35 -35s-16 -35 -35 -35s-35 13 -35 35s16 35 35 35z" />
    <glyph glyph-name="Ygrave" unicode="&#x1ef2;" horiz-adv-x="593" 
d="M489 700h84v-9c-28 -5 -41 -16 -58 -47l-194 -359v-224c0 -34 3 -50 35 -52v-9h-103v9c32 2 34 18 34 52v220l-211 361c-17 29 -28 45 -56 49v9h106v-9c-23 -2 -33 -16 -15 -47l204 -348v0l188 348c13 25 13 43 -14 47v9zM365 787c8 -6 12 -9 9 -14s-8 -4 -17 -1
c-37 15 -58 23 -110 45c-25 10 -32 22 -24 37c8 16 22 16 44 1c48 -32 66 -45 98 -68z" />
    <glyph glyph-name="Zacute" unicode="&#x179;" horiz-adv-x="606" 
d="M552 97h9l-18 -97h-498v12l454 675h-314c-72 0 -95 -36 -111 -84h-9l19 97h453v-13l-454 -675h359c72 0 95 36 110 85zM233 787c32 23 51 36 98 68c22 15 36 15 44 -1c9 -15 1 -27 -24 -37c-52 -22 -73 -30 -110 -45c-9 -3 -14 -4 -17 1c-2 5 1 8 9 14z" />
    <glyph glyph-name="Zcaron" unicode="&#x17d;" horiz-adv-x="606" 
d="M552 97h9l-18 -97h-498v12l454 675h-314c-72 0 -95 -36 -111 -84h-9l19 97h453v-13l-454 -675h359c72 0 95 36 110 85zM455 887l4 -7l-135 -122h-22l-136 122l5 7l142 -95z" />
    <glyph glyph-name="Zdotaccent" unicode="&#x17b;" horiz-adv-x="606" 
d="M552 97h9l-18 -97h-498v12l454 675h-314c-72 0 -95 -36 -111 -84h-9l19 97h453v-13l-454 -675h359c72 0 95 36 110 85zM313 861c19 0 35 -13 35 -35s-16 -35 -35 -35s-35 13 -35 35s16 35 35 35z" />
    <glyph glyph-name="aacute" unicode="&#xe1;" horiz-adv-x="480" 
d="M456 21l4 -6c-6 -11 -20 -25 -41 -25c-32 0 -51 17 -51 56v64c-17 -59 -78 -120 -171 -120c-85 0 -151 45 -156 118c-6 88 60 148 151 156c98 8 176 13 176 13v51c0 110 -65 144 -142 144c-50 0 -105 -28 -104 -78c1 -21 -10 -35 -30 -30c-19 5 -18 27 -8 47
c24 48 75 69 139 72c88 3 179 -33 179 -166v-275c0 -39 38 -42 54 -21zM224 8c95 8 144 87 144 168v90c0 0 -69 -3 -149 -12c-92 -10 -153 -58 -147 -141c6 -77 73 -112 152 -105zM180 577c32 23 51 36 98 68c22 15 36 15 44 -1c9 -15 1 -27 -24 -37
c-52 -22 -73 -30 -110 -45c-9 -3 -14 -4 -17 1c-2 5 1 8 9 14z" />
    <glyph glyph-name="abreve" unicode="&#x103;" horiz-adv-x="480" 
d="M456 21l4 -6c-6 -11 -20 -25 -41 -25c-32 0 -51 17 -51 56v64c-17 -59 -78 -120 -171 -120c-85 0 -151 45 -156 118c-6 88 60 148 151 156c98 8 176 13 176 13v51c0 110 -65 144 -142 144c-50 0 -105 -28 -104 -78c1 -21 -10 -35 -30 -30c-19 5 -18 27 -8 47
c24 48 75 69 139 72c88 3 179 -33 179 -166v-275c0 -39 38 -42 54 -21zM224 8c95 8 144 87 144 168v90c0 0 -69 -3 -149 -12c-92 -10 -153 -58 -147 -141c6 -77 73 -112 152 -105zM361 663l8 -2c-7 -50 -53 -95 -119 -95c-65 0 -111 45 -119 95l9 2c16 -44 52 -67 110 -67
c59 0 94 23 111 67z" />
    <glyph glyph-name="acircumflex" unicode="&#xe2;" horiz-adv-x="480" 
d="M456 21l4 -6c-6 -11 -20 -25 -41 -25c-32 0 -51 17 -51 56v64c-17 -59 -78 -120 -171 -120c-85 0 -151 45 -156 118c-6 88 60 148 151 156c98 8 176 13 176 13v51c0 110 -65 144 -142 144c-50 0 -105 -28 -104 -78c1 -21 -10 -35 -30 -30c-19 5 -18 27 -8 47
c24 48 75 69 139 72c88 3 179 -33 179 -166v-275c0 -39 38 -42 54 -21zM224 8c95 8 144 87 144 168v90c0 0 -69 -3 -149 -12c-92 -10 -153 -58 -147 -141c6 -77 73 -112 152 -105zM260 677l136 -122l-5 -7l-142 95l-141 -95l-5 7l135 122h22z" />
    <glyph glyph-name="adieresis" unicode="&#xe4;" horiz-adv-x="480" 
d="M456 21l4 -6c-6 -11 -20 -25 -41 -25c-32 0 -51 17 -51 56v64c-17 -59 -78 -120 -171 -120c-85 0 -151 45 -156 118c-6 88 60 148 151 156c98 8 176 13 176 13v51c0 110 -65 144 -142 144c-50 0 -105 -28 -104 -78c1 -21 -10 -35 -30 -30c-19 5 -18 27 -8 47
c24 48 75 69 139 72c88 3 179 -33 179 -166v-275c0 -39 38 -42 54 -21zM224 8c95 8 144 87 144 168v90c0 0 -69 -3 -149 -12c-92 -10 -153 -58 -147 -141c6 -77 73 -112 152 -105zM180 651c19 0 35 -13 35 -35s-16 -35 -35 -35s-36 13 -36 35s17 35 36 35zM321 651
c19 0 35 -13 35 -35s-16 -35 -35 -35s-35 13 -35 35s16 35 35 35z" />
    <glyph glyph-name="agrave" unicode="&#xe0;" horiz-adv-x="480" 
d="M456 21l4 -6c-6 -11 -20 -25 -41 -25c-32 0 -51 17 -51 56v64c-17 -59 -78 -120 -171 -120c-85 0 -151 45 -156 118c-6 88 60 148 151 156c98 8 176 13 176 13v51c0 110 -65 144 -142 144c-50 0 -105 -28 -104 -78c1 -21 -10 -35 -30 -30c-19 5 -18 27 -8 47
c24 48 75 69 139 72c88 3 179 -33 179 -166v-275c0 -39 38 -42 54 -21zM224 8c95 8 144 87 144 168v90c0 0 -69 -3 -149 -12c-92 -10 -153 -58 -147 -141c6 -77 73 -112 152 -105zM319 577c8 -6 12 -9 9 -14s-8 -4 -17 -1c-37 15 -58 23 -110 45c-25 10 -32 22 -24 37
c8 16 22 16 44 1c48 -32 66 -45 98 -68z" />
    <glyph glyph-name="amacron" unicode="&#x101;" horiz-adv-x="480" 
d="M456 21l4 -6c-6 -11 -20 -25 -41 -25c-32 0 -51 17 -51 56v64c-17 -59 -78 -120 -171 -120c-85 0 -151 45 -156 118c-6 88 60 148 151 156c98 8 176 13 176 13v51c0 110 -65 144 -142 144c-50 0 -105 -28 -104 -78c1 -21 -10 -35 -30 -30c-19 5 -18 27 -8 47
c24 48 75 69 139 72c88 3 179 -33 179 -166v-275c0 -39 38 -42 54 -21zM224 8c95 8 144 87 144 168v90c0 0 -69 -3 -149 -12c-92 -10 -153 -58 -147 -141c6 -77 73 -112 152 -105zM108 619h284v-12h-284v12z" />
    <glyph glyph-name="aring" unicode="&#xe5;" horiz-adv-x="480" 
d="M456 21l4 -6c-6 -11 -20 -25 -41 -25c-32 0 -51 17 -51 56v64c-17 -59 -78 -120 -171 -120c-85 0 -151 45 -156 118c-6 88 60 148 151 156c98 8 176 13 176 13v51c0 110 -65 144 -142 144c-50 0 -105 -28 -104 -78c1 -21 -10 -35 -30 -30c-19 5 -18 27 -8 47
c24 48 75 69 139 72c88 3 179 -33 179 -166v-275c0 -39 38 -42 54 -21zM224 8c95 8 144 87 144 168v90c0 0 -69 -3 -149 -12c-92 -10 -153 -58 -147 -141c6 -77 73 -112 152 -105zM249 740c53 0 100 -41 100 -97c0 -55 -47 -96 -100 -96c-52 0 -99 41 -99 96
c0 56 47 97 99 97zM249 556c43 0 74 36 74 87s-31 88 -74 88c-42 0 -73 -37 -73 -88s31 -87 73 -87z" />
    <glyph glyph-name="atilde" unicode="&#xe3;" horiz-adv-x="480" 
d="M456 21l4 -6c-6 -11 -20 -25 -41 -25c-32 0 -51 17 -51 56v64c-17 -59 -78 -120 -171 -120c-85 0 -151 45 -156 118c-6 88 60 148 151 156c98 8 176 13 176 13v51c0 110 -65 144 -142 144c-50 0 -105 -28 -104 -78c1 -21 -10 -35 -30 -30c-19 5 -18 27 -8 47
c24 48 75 69 139 72c88 3 179 -33 179 -166v-275c0 -39 38 -42 54 -21zM224 8c95 8 144 87 144 168v90c0 0 -69 -3 -149 -12c-92 -10 -153 -58 -147 -141c6 -77 73 -112 152 -105zM177 660c28 0 54 -10 87 -25c30 -13 54 -28 81 -28c30 0 47 24 54 51h11
c-9 -62 -39 -80 -81 -80c-26 0 -61 16 -96 31c-28 11 -47 17 -71 17s-47 -15 -61 -43h-11c10 57 40 77 87 77z" />
    <glyph glyph-name="aeacute" unicode="&#x1fd;" horiz-adv-x="834" 
d="M794 269h-389c-1 -10 -1 -19 -1 -29c0 -147 91 -217 184 -229c88 -11 154 29 191 86l9 -6c-41 -61 -98 -101 -183 -101c-106 0 -193 61 -224 165c-13 -108 -88 -165 -181 -165c-85 0 -154 45 -159 118c-6 88 60 148 151 156c98 8 176 13 176 13v52
c0 110 -65 143 -142 143c-50 0 -105 -28 -104 -78c1 -21 -10 -35 -30 -30c-19 5 -18 27 -8 47c24 48 75 69 139 72c75 3 153 -23 174 -115c37 74 107 115 192 115c160 0 205 -134 205 -213v-1zM593 472c-92 -1 -172 -69 -187 -191h355c-3 90 -47 191 -168 191zM368 176v90
c0 0 -69 -3 -149 -12c-92 -10 -153 -58 -147 -140c6 -78 73 -113 152 -106c95 8 144 87 144 168zM377 577c32 23 51 36 98 68c22 15 36 15 44 -1c9 -15 1 -27 -24 -37c-52 -22 -73 -30 -110 -45c-9 -3 -14 -4 -17 1c-2 5 1 8 9 14z" />
    <glyph glyph-name="cacute" unicode="&#x107;" horiz-adv-x="497" 
d="M448 98l9 -7c-41 -60 -96 -101 -181 -101c-132 0 -236 96 -236 250s106 243 231 243c78 0 145 -31 168 -78c9 -18 6 -40 -9 -45c-17 -6 -34 5 -33 30c2 47 -46 83 -122 82c-102 -1 -200 -85 -200 -232s91 -217 184 -229c88 -11 152 30 189 87zM198 577c32 23 51 36 98 68
c22 15 36 15 44 -1c9 -15 1 -27 -24 -37c-52 -22 -73 -30 -110 -45c-9 -3 -14 -4 -17 1c-2 5 1 8 9 14z" />
    <glyph glyph-name="ccaron" unicode="&#x10d;" horiz-adv-x="497" 
d="M448 98l9 -7c-41 -60 -96 -101 -181 -101c-132 0 -236 96 -236 250s106 243 231 243c78 0 145 -31 168 -78c9 -18 6 -40 -9 -45c-17 -6 -34 5 -33 30c2 47 -46 83 -122 82c-102 -1 -200 -85 -200 -232s91 -217 184 -229c88 -11 152 30 189 87zM411 677l4 -7l-135 -122
h-22l-136 122l5 7l142 -95z" />
    <glyph glyph-name="ccircumflex" unicode="&#x109;" horiz-adv-x="497" 
d="M448 98l9 -7c-41 -60 -96 -101 -181 -101c-132 0 -236 96 -236 250s106 243 231 243c78 0 145 -31 168 -78c9 -18 6 -40 -9 -45c-17 -6 -34 5 -33 30c2 47 -46 83 -122 82c-102 -1 -200 -85 -200 -232s91 -217 184 -229c88 -11 152 30 189 87zM279 677l136 -122l-5 -7
l-142 95l-141 -95l-5 7l135 122h22z" />
    <glyph glyph-name="cdotaccent" unicode="&#x10b;" horiz-adv-x="497" 
d="M448 98l9 -7c-41 -60 -96 -101 -181 -101c-132 0 -236 96 -236 250s106 243 231 243c78 0 145 -31 168 -78c9 -18 6 -40 -9 -45c-17 -6 -34 5 -33 30c2 47 -46 83 -122 82c-102 -1 -200 -85 -200 -232s91 -217 184 -229c88 -11 152 30 189 87zM268 651
c19 0 35 -13 35 -35s-16 -35 -35 -35s-35 13 -35 35s16 35 35 35z" />
    <glyph glyph-name="dcaron" unicode="&#x10f;" horiz-adv-x="635" 
d="M535 14l4 -5c-5 -8 -21 -19 -39 -19c-32 0 -53 17 -53 56v68c-35 -77 -104 -124 -185 -124c-129 0 -222 97 -222 246c0 150 93 247 222 247c81 0 150 -47 185 -124v279c0 34 -2 50 -34 53v9l59 19h9v-677c0 -37 31 -43 54 -28zM262 1c102 0 185 91 185 235
c0 145 -83 235 -185 235c-104 0 -185 -87 -185 -235s81 -235 185 -235zM614 740c19 0 35 -15 35 -39c2 -54 -46 -122 -70 -140l-10 10c35 35 50 71 51 100h-6c-19 0 -35 13 -35 35s16 34 35 34z" />
    <glyph glyph-name="eacute" unicode="&#xe9;" horiz-adv-x="505" 
d="M465 268h-389c-1 -9 -1 -18 -1 -28c0 -147 91 -217 184 -229c87 -11 154 29 191 86l9 -7c-41 -60 -98 -100 -183 -100c-133 0 -236 96 -236 250c0 153 95 243 220 243c160 0 205 -134 205 -213v-2zM264 472c-92 -1 -172 -69 -187 -191h355c-3 90 -47 191 -168 191z
M202 577c32 23 51 36 98 68c22 15 36 15 44 -1c9 -15 1 -27 -24 -37c-52 -22 -73 -30 -110 -45c-9 -3 -14 -4 -17 1c-2 5 1 8 9 14z" />
    <glyph glyph-name="ebreve" unicode="&#x115;" horiz-adv-x="505" 
d="M465 268h-389c-1 -9 -1 -18 -1 -28c0 -147 91 -217 184 -229c87 -11 154 29 191 86l9 -7c-41 -60 -98 -100 -183 -100c-133 0 -236 96 -236 250c0 153 95 243 220 243c160 0 205 -134 205 -213v-2zM264 472c-92 -1 -172 -69 -187 -191h355c-3 90 -47 191 -168 191z
M383 663l8 -2c-7 -50 -53 -95 -119 -95c-65 0 -111 45 -119 95l9 2c16 -44 52 -67 110 -67c59 0 94 23 111 67z" />
    <glyph glyph-name="ecaron" unicode="&#x11b;" horiz-adv-x="505" 
d="M465 268h-389c-1 -9 -1 -18 -1 -28c0 -147 91 -217 184 -229c87 -11 154 29 191 86l9 -7c-41 -60 -98 -100 -183 -100c-133 0 -236 96 -236 250c0 153 95 243 220 243c160 0 205 -134 205 -213v-2zM264 472c-92 -1 -172 -69 -187 -191h355c-3 90 -47 191 -168 191z
M415 677l4 -7l-135 -122h-22l-136 122l5 7l142 -95z" />
    <glyph glyph-name="ecircumflex" unicode="&#xea;" horiz-adv-x="505" 
d="M465 268h-389c-1 -9 -1 -18 -1 -28c0 -147 91 -217 184 -229c87 -11 154 29 191 86l9 -7c-41 -60 -98 -100 -183 -100c-133 0 -236 96 -236 250c0 153 95 243 220 243c160 0 205 -134 205 -213v-2zM264 472c-92 -1 -172 -69 -187 -191h355c-3 90 -47 191 -168 191z
M283 677l136 -122l-5 -7l-142 95l-141 -95l-5 7l135 122h22z" />
    <glyph glyph-name="edieresis" unicode="&#xeb;" horiz-adv-x="505" 
d="M465 268h-389c-1 -9 -1 -18 -1 -28c0 -147 91 -217 184 -229c87 -11 154 29 191 86l9 -7c-41 -60 -98 -100 -183 -100c-133 0 -236 96 -236 250c0 153 95 243 220 243c160 0 205 -134 205 -213v-2zM264 472c-92 -1 -172 -69 -187 -191h355c-3 90 -47 191 -168 191z
M202 651c19 0 35 -13 35 -35s-16 -35 -35 -35s-36 13 -36 35s17 35 36 35zM343 651c19 0 35 -13 35 -35s-16 -35 -35 -35s-35 13 -35 35s16 35 35 35z" />
    <glyph glyph-name="edotaccent" unicode="&#x117;" horiz-adv-x="505" 
d="M465 268h-389c-1 -9 -1 -18 -1 -28c0 -147 91 -217 184 -229c87 -11 154 29 191 86l9 -7c-41 -60 -98 -100 -183 -100c-133 0 -236 96 -236 250c0 153 95 243 220 243c160 0 205 -134 205 -213v-2zM264 472c-92 -1 -172 -69 -187 -191h355c-3 90 -47 191 -168 191z
M272 651c19 0 35 -13 35 -35s-16 -35 -35 -35s-35 13 -35 35s16 35 35 35z" />
    <glyph glyph-name="egrave" unicode="&#xe8;" horiz-adv-x="505" 
d="M465 268h-389c-1 -9 -1 -18 -1 -28c0 -147 91 -217 184 -229c87 -11 154 29 191 86l9 -7c-41 -60 -98 -100 -183 -100c-133 0 -236 96 -236 250c0 153 95 243 220 243c160 0 205 -134 205 -213v-2zM264 472c-92 -1 -172 -69 -187 -191h355c-3 90 -47 191 -168 191z
M341 577c8 -6 12 -9 9 -14s-8 -4 -17 -1c-37 15 -58 23 -110 45c-25 10 -32 22 -24 37c8 16 22 16 44 1c48 -32 66 -45 98 -68z" />
    <glyph glyph-name="emacron" unicode="&#x113;" horiz-adv-x="505" 
d="M465 268h-389c-1 -9 -1 -18 -1 -28c0 -147 91 -217 184 -229c87 -11 154 29 191 86l9 -7c-41 -60 -98 -100 -183 -100c-133 0 -236 96 -236 250c0 153 95 243 220 243c160 0 205 -134 205 -213v-2zM264 472c-92 -1 -172 -69 -187 -191h355c-3 90 -47 191 -168 191z
M130 619h284v-12h-284v12z" />
    <glyph glyph-name="gbreve" unicode="&#x11f;" horiz-adv-x="551" 
d="M288 50c138 0 243 -26 243 -121s-84 -192 -251 -192c-168 0 -261 73 -259 151c1 64 65 115 170 134c-72 6 -147 27 -138 88c7 52 80 67 125 71c-46 28 -75 75 -75 138c0 103 76 164 177 164c43 0 81 -10 111 -31c4 36 21 73 46 82c18 7 35 1 38 -13c2 -12 -4 -26 -26 -25
c-26 1 -46 -16 -50 -50c36 -28 58 -71 58 -127c0 -102 -75 -164 -177 -164c-34 0 -65 7 -92 20c-39 -3 -107 -15 -117 -53c-14 -54 62 -72 217 -72zM136 319c0 -99 64 -152 144 -152c81 0 144 53 144 152c0 100 -63 152 -144 152c-80 0 -144 -52 -144 -152zM286 -249
c88 0 213 47 219 154c6 106 -111 114 -242 114h-26c-67 -5 -186 -32 -187 -133c-2 -116 151 -135 236 -135zM396 663l8 -2c-7 -50 -53 -95 -119 -95c-65 0 -111 45 -119 95l9 2c16 -44 52 -67 110 -67c59 0 94 23 111 67z" />
    <glyph glyph-name="gcircumflex" unicode="&#x11d;" horiz-adv-x="551" 
d="M288 50c138 0 243 -26 243 -121s-84 -192 -251 -192c-168 0 -261 73 -259 151c1 64 65 115 170 134c-72 6 -147 27 -138 88c7 52 80 67 125 71c-46 28 -75 75 -75 138c0 103 76 164 177 164c43 0 81 -10 111 -31c4 36 21 73 46 82c18 7 35 1 38 -13c2 -12 -4 -26 -26 -25
c-26 1 -46 -16 -50 -50c36 -28 58 -71 58 -127c0 -102 -75 -164 -177 -164c-34 0 -65 7 -92 20c-39 -3 -107 -15 -117 -53c-14 -54 62 -72 217 -72zM136 319c0 -99 64 -152 144 -152c81 0 144 53 144 152c0 100 -63 152 -144 152c-80 0 -144 -52 -144 -152zM286 -249
c88 0 213 47 219 154c6 106 -111 114 -242 114h-26c-67 -5 -186 -32 -187 -133c-2 -116 151 -135 236 -135zM296 677l136 -122l-5 -7l-142 95l-141 -95l-5 7l135 122h22z" />
    <glyph glyph-name="gcommaaccent" unicode="&#x123;" horiz-adv-x="551" 
d="M288 50c138 0 243 -26 243 -121s-84 -192 -251 -192c-168 0 -261 73 -259 151c1 64 65 115 170 134c-72 6 -147 27 -138 88c7 52 80 67 125 71c-46 28 -75 75 -75 138c0 103 76 164 177 164c43 0 81 -10 111 -31c4 36 21 73 46 82c18 7 35 1 38 -13c2 -12 -4 -26 -26 -25
c-26 1 -46 -16 -50 -50c36 -28 58 -71 58 -127c0 -102 -75 -164 -177 -164c-34 0 -65 7 -92 20c-39 -3 -107 -15 -117 -53c-14 -54 62 -72 217 -72zM136 319c0 -99 64 -152 144 -152c81 0 144 53 144 152c0 100 -63 152 -144 152c-80 0 -144 -52 -144 -152zM286 -249
c88 0 213 47 219 154c6 106 -111 114 -242 114h-26c-67 -5 -186 -32 -187 -133c-2 -116 151 -135 236 -135zM282 646c19 0 35 -13 35 -34c0 -22 -16 -35 -35 -35s-35 15 -36 39c-1 54 47 122 71 140l9 -10c-34 -35 -49 -71 -50 -100h6z" />
    <glyph glyph-name="gdotaccent" unicode="&#x121;" horiz-adv-x="551" 
d="M288 50c138 0 243 -26 243 -121s-84 -192 -251 -192c-168 0 -261 73 -259 151c1 64 65 115 170 134c-72 6 -147 27 -138 88c7 52 80 67 125 71c-46 28 -75 75 -75 138c0 103 76 164 177 164c43 0 81 -10 111 -31c4 36 21 73 46 82c18 7 35 1 38 -13c2 -12 -4 -26 -26 -25
c-26 1 -46 -16 -50 -50c36 -28 58 -71 58 -127c0 -102 -75 -164 -177 -164c-34 0 -65 7 -92 20c-39 -3 -107 -15 -117 -53c-14 -54 62 -72 217 -72zM136 319c0 -99 64 -152 144 -152c81 0 144 53 144 152c0 100 -63 152 -144 152c-80 0 -144 -52 -144 -152zM286 -249
c88 0 213 47 219 154c6 106 -111 114 -242 114h-26c-67 -5 -186 -32 -187 -133c-2 -116 151 -135 236 -135zM285 651c19 0 35 -13 35 -35s-16 -35 -35 -35s-35 13 -35 35s16 35 35 35z" />
    <glyph glyph-name="hcircumflex" unicode="&#x125;" horiz-adv-x="546" 
d="M472 61c0 -34 2 -50 34 -52v-9h-103v9c32 2 34 18 34 52v213c0 107 -43 197 -157 197c-76 0 -161 -65 -161 -145v-265c0 -34 2 -50 34 -52v-9h-103v9c32 2 35 18 35 52v577c0 34 -3 50 -35 53v9l60 19h9v-337c29 56 94 101 167 101c109 0 186 -64 186 -197v-225zM211 887
l136 -122l-5 -7l-142 95l-141 -95l-5 7l135 122h22z" />
    <glyph glyph-name="dotlessi" unicode="&#x131;" 
d="M129 61c0 -34 2 -50 34 -52v-9h-103v9c32 2 35 18 35 52v341c0 34 -3 50 -35 53v9l60 19h9v-422z" />
    <glyph glyph-name="iacute" unicode="&#xed;" 
d="M129 61c0 -34 2 -50 34 -52v-9h-103v9c32 2 35 18 35 52v341c0 34 -3 50 -35 53v9l60 19h9v-422zM42 577c32 23 51 36 98 68c22 15 36 15 44 -1c9 -15 1 -27 -24 -37c-52 -22 -73 -30 -110 -45c-9 -3 -14 -4 -17 1c-2 5 1 8 9 14z" />
    <glyph glyph-name="ibreve" unicode="&#x12d;" 
d="M129 61c0 -34 2 -50 34 -52v-9h-103v9c32 2 35 18 35 52v341c0 34 -3 50 -35 53v9l60 19h9v-422zM223 663l8 -2c-7 -50 -53 -95 -119 -95c-65 0 -111 45 -119 95l9 2c16 -44 52 -67 110 -67c59 0 94 23 111 67z" />
    <glyph glyph-name="icircumflex" unicode="&#xee;" 
d="M129 61c0 -34 2 -50 34 -52v-9h-103v9c32 2 35 18 35 52v341c0 34 -3 50 -35 53v9l60 19h9v-422zM122 677l136 -122l-5 -7l-142 95l-141 -95l-5 7l135 122h22z" />
    <glyph glyph-name="idieresis" unicode="&#xef;" 
d="M129 61c0 -34 2 -50 34 -52v-9h-103v9c32 2 35 18 35 52v341c0 34 -3 50 -35 53v9l60 19h9v-422zM42 651c19 0 35 -13 35 -35s-16 -35 -35 -35s-36 13 -36 35s17 35 36 35zM183 651c19 0 35 -13 35 -35s-16 -35 -35 -35s-35 13 -35 35s16 35 35 35z" />
    <glyph glyph-name="igrave" unicode="&#xec;" 
d="M129 61c0 -34 2 -50 34 -52v-9h-103v9c32 2 35 18 35 52v341c0 34 -3 50 -35 53v9l60 19h9v-422zM181 577c8 -6 12 -9 9 -14s-8 -4 -17 -1c-37 15 -58 23 -110 45c-25 10 -32 22 -24 37c8 16 22 16 44 1c48 -32 66 -45 98 -68z" />
    <glyph glyph-name="imacron" unicode="&#x12b;" 
d="M129 61c0 -34 2 -50 34 -52v-9h-103v9c32 2 35 18 35 52v341c0 34 -3 50 -35 53v9l60 19h9v-422zM-30 619h284v-12h-284v12z" />
    <glyph glyph-name="itilde" unicode="&#x129;" 
d="M129 61c0 -34 2 -50 34 -52v-9h-103v9c32 2 35 18 35 52v341c0 34 -3 50 -35 53v9l60 19h9v-422zM39 650c28 0 54 -10 87 -25c30 -13 54 -28 81 -28c30 0 47 24 54 51h11c-9 -62 -39 -80 -81 -80c-26 0 -61 16 -96 31c-28 11 -47 17 -71 17s-47 -15 -61 -43h-11
c10 57 40 77 87 77z" />
    <glyph glyph-name="ij" unicode="&#x133;" horiz-adv-x="414" 
d="M95 577c-18 0 -33 12 -33 32c0 21 15 33 33 33s33 -12 33 -33c0 -20 -15 -32 -33 -32zM119 61c0 -34 2 -50 34 -52v-9h-103v9c32 2 35 18 35 52v341c0 34 -3 50 -35 53v9l60 19h9v-422zM321 577c-18 0 -33 12 -33 32c0 21 15 33 33 33s33 -12 33 -33
c0 -20 -15 -32 -33 -32zM276 464l60 19h9v-477c0 -56 -1 -102 -5 -125c-9 -43 -40 -69 -89 -66c-35 2 -71 22 -90 60c-9 20 -11 39 1 46c9 5 19 4 25 -4s7 -15 6 -29c-1 -47 42 -64 71 -62c27 3 49 20 51 54c1 30 -5 40 -5 133v389c0 34 -2 50 -34 53v9z" />
    <glyph glyph-name="jcircumflex" unicode="&#x135;" horiz-adv-x="201" 
d="M64 464l60 19h9v-477c0 -56 -1 -102 -5 -125c-9 -43 -40 -69 -89 -66c-35 2 -71 22 -90 60c-9 20 -11 39 1 46c9 5 19 4 25 -4s7 -15 6 -29c-1 -47 42 -64 71 -62c27 3 49 20 51 54c1 30 -4 40 -4 133h-1v389c0 34 -2 50 -34 53v9zM52 677l136 -122l-5 -7l-142 95
l-141 -95l-5 7l135 122h22z" />
    <glyph glyph-name="kcommaaccent" unicode="&#x137;" horiz-adv-x="503" 
d="M421 62c22 -27 40 -45 62 -53v-9h-97v9c27 5 15 29 -5 53l-175 210l-87 -82v-128c0 -34 2 -50 34 -53v-9h-103v9c32 3 34 19 34 53v576c0 35 -2 51 -34 53v9l60 20h9v-515l225 209c28 27 39 47 17 51v9h75v-9c-23 -5 -38 -15 -62 -37l-145 -135zM258 -100
c19 0 35 -15 35 -39c2 -54 -46 -122 -70 -140l-10 10c35 35 49 71 51 100h-6c-19 0 -35 13 -35 35c0 21 16 34 35 34z" />
    <glyph glyph-name="kgreenlandic" unicode="&#x138;" horiz-adv-x="503" 
d="M421 62c22 -27 40 -45 62 -53v-9h-97v9c27 5 15 29 -5 53l-175 210l-88 -82v-128c0 -34 3 -50 35 -53v-9h-103v9c32 3 34 19 34 53v406c0 34 -2 50 -34 53v9l60 19h8v-344l226 209c28 27 39 47 17 51v9h75v-9c-24 -5 -38 -15 -63 -37l-144 -135z" />
    <glyph glyph-name="lacute" unicode="&#x13a;" 
d="M129 61c0 -34 2 -50 34 -52v-9h-103v9c32 2 35 18 35 52v577c0 34 -3 50 -35 53v9l60 19h9v-658zM32 789c32 23 51 36 98 68c22 15 36 15 44 -1c9 -15 1 -27 -24 -37c-52 -22 -73 -30 -110 -45c-9 -3 -14 -4 -17 1c-2 5 1 8 9 14z" />
    <glyph glyph-name="lcaron" unicode="&#x13e;" horiz-adv-x="282" 
d="M129 61c0 -34 2 -50 34 -52v-9h-103v9c32 2 35 18 35 52v577c0 34 -3 50 -35 53v9l60 19h9v-658zM261 740c19 0 35 -15 35 -39c2 -54 -46 -122 -70 -140l-10 10c35 35 50 71 51 100h-6c-19 0 -35 13 -35 35s16 34 35 34z" />
    <glyph glyph-name="lcommaaccent" unicode="&#x13c;" 
d="M129 61c0 -34 2 -50 34 -52v-9h-103v9c32 2 35 18 35 52v577c0 34 -3 50 -35 53v9l60 19h9v-658zM115 -100c19 0 35 -15 35 -39c2 -54 -46 -122 -70 -140l-10 10c35 35 49 71 51 100h-6c-19 0 -35 13 -35 35c0 21 16 34 35 34z" />
    <glyph glyph-name="ldot" unicode="&#x140;" horiz-adv-x="307" 
d="M129 61c0 -34 2 -50 34 -52v-9h-103v9c32 2 35 18 35 52v577c0 34 -3 50 -35 53v9l60 19h9v-658zM232 402c19 0 35 -13 35 -35s-16 -35 -35 -35s-35 13 -35 35s16 35 35 35z" />
    <glyph glyph-name="nacute" unicode="&#x144;" horiz-adv-x="556" 
d="M472 61c0 -34 2 -50 34 -52v-9h-103v9c32 2 34 18 34 52v213c0 107 -43 197 -158 197c-75 0 -160 -65 -160 -145v-265c0 -34 2 -50 34 -52v-9h-103v9c32 2 35 18 35 52v341c0 34 -3 50 -35 53v9l60 19h9v-101c29 56 94 101 167 101c108 0 186 -64 186 -197v-225zM208 577
c32 23 51 36 98 68c22 15 36 15 44 -1c9 -15 1 -27 -24 -37c-52 -22 -73 -30 -110 -45c-9 -3 -14 -4 -17 1c-2 5 1 8 9 14z" />
    <glyph glyph-name="napostrophe" unicode="&#x149;" horiz-adv-x="679" 
d="M595 61c0 -34 2 -50 34 -52v-9h-103v9c32 2 34 18 34 52v213c0 107 -43 197 -158 197c-75 0 -160 -65 -160 -145v-265c0 -34 2 -50 34 -52v-9h-103v9c32 2 35 18 35 52v341c0 34 -3 50 -35 53v9l60 19h9v-101c29 56 94 101 167 101c108 0 186 -64 186 -197v-225zM95 710
c19 0 35 -15 35 -39c2 -54 -46 -122 -70 -140l-10 10c35 35 49 71 51 100h-6c-19 0 -35 13 -35 35c0 21 16 34 35 34z" />
    <glyph glyph-name="ncaron" unicode="&#x148;" horiz-adv-x="556" 
d="M472 61c0 -34 2 -50 34 -52v-9h-103v9c32 2 34 18 34 52v213c0 107 -43 197 -158 197c-75 0 -160 -65 -160 -145v-265c0 -34 2 -50 34 -52v-9h-103v9c32 2 35 18 35 52v341c0 34 -3 50 -35 53v9l60 19h9v-101c29 56 94 101 167 101c108 0 186 -64 186 -197v-225zM420 677
l4 -7l-135 -122h-22l-136 122l5 7l142 -95z" />
    <glyph glyph-name="ncommaaccent" unicode="&#x146;" horiz-adv-x="556" 
d="M472 61c0 -34 2 -50 34 -52v-9h-103v9c32 2 34 18 34 52v213c0 107 -43 197 -158 197c-75 0 -160 -65 -160 -145v-265c0 -34 2 -50 34 -52v-9h-103v9c32 2 35 18 35 52v341c0 34 -3 50 -35 53v9l60 19h9v-101c29 56 94 101 167 101c108 0 186 -64 186 -197v-225z
M282 -100c19 0 35 -15 35 -39c2 -54 -46 -122 -70 -140l-10 10c35 35 49 71 51 100h-6c-19 0 -35 13 -35 35c0 21 16 34 35 34z" />
    <glyph glyph-name="ntilde" unicode="&#xf1;" horiz-adv-x="556" 
d="M472 61c0 -34 2 -50 34 -52v-9h-103v9c32 2 34 18 34 52v213c0 107 -43 197 -158 197c-75 0 -160 -65 -160 -145v-265c0 -34 2 -50 34 -52v-9h-103v9c32 2 35 18 35 52v341c0 34 -3 50 -35 53v9l60 19h9v-101c29 56 94 101 167 101c108 0 186 -64 186 -197v-225zM205 660
c28 0 54 -10 87 -25c30 -13 54 -28 81 -28c30 0 47 24 54 51h11c-9 -62 -39 -80 -81 -80c-26 0 -61 16 -96 31c-28 11 -47 17 -71 17s-47 -15 -61 -43h-11c10 57 40 77 87 77z" />
    <glyph glyph-name="oacute" unicode="&#xf3;" horiz-adv-x="554" 
d="M270 483c130 0 234 -95 234 -247c0 -151 -104 -246 -234 -246c-131 0 -235 95 -235 246c0 152 104 247 235 247zM270 1c109 0 198 89 198 235s-89 235 -198 235c-110 0 -199 -89 -199 -235s89 -235 199 -235zM199 577c32 23 51 36 98 68c22 15 36 15 44 -1
c9 -15 1 -27 -24 -37c-52 -22 -73 -30 -110 -45c-9 -3 -14 -4 -17 1c-2 5 1 8 9 14z" />
    <glyph glyph-name="obreve" unicode="&#x14f;" horiz-adv-x="554" 
d="M270 483c130 0 234 -95 234 -247c0 -151 -104 -246 -234 -246c-131 0 -235 95 -235 246c0 152 104 247 235 247zM270 1c109 0 198 89 198 235s-89 235 -198 235c-110 0 -199 -89 -199 -235s89 -235 199 -235zM380 663l8 -2c-7 -50 -53 -95 -119 -95
c-65 0 -111 45 -119 95l9 2c16 -44 52 -67 110 -67c59 0 94 23 111 67z" />
    <glyph glyph-name="ocircumflex" unicode="&#xf4;" horiz-adv-x="554" 
d="M270 483c130 0 234 -95 234 -247c0 -151 -104 -246 -234 -246c-131 0 -235 95 -235 246c0 152 104 247 235 247zM270 1c109 0 198 89 198 235s-89 235 -198 235c-110 0 -199 -89 -199 -235s89 -235 199 -235zM280 677l136 -122l-5 -7l-142 95l-141 -95l-5 7l135 122h22z
" />
    <glyph glyph-name="odieresis" unicode="&#xf6;" horiz-adv-x="554" 
d="M270 483c130 0 234 -95 234 -247c0 -151 -104 -246 -234 -246c-131 0 -235 95 -235 246c0 152 104 247 235 247zM270 1c109 0 198 89 198 235s-89 235 -198 235c-110 0 -199 -89 -199 -235s89 -235 199 -235zM199 651c19 0 35 -13 35 -35s-16 -35 -35 -35s-36 13 -36 35
s17 35 36 35zM340 651c19 0 35 -13 35 -35s-16 -35 -35 -35s-35 13 -35 35s16 35 35 35z" />
    <glyph glyph-name="ograve" unicode="&#xf2;" horiz-adv-x="554" 
d="M270 483c130 0 234 -95 234 -247c0 -151 -104 -246 -234 -246c-131 0 -235 95 -235 246c0 152 104 247 235 247zM270 1c109 0 198 89 198 235s-89 235 -198 235c-110 0 -199 -89 -199 -235s89 -235 199 -235zM338 577c8 -6 12 -9 9 -14s-8 -4 -17 -1
c-37 15 -58 23 -110 45c-25 10 -32 22 -24 37c8 16 22 16 44 1c48 -32 66 -45 98 -68z" />
    <glyph glyph-name="ohungarumlaut" unicode="&#x151;" horiz-adv-x="554" 
d="M270 483c130 0 234 -95 234 -247c0 -151 -104 -246 -234 -246c-131 0 -235 95 -235 246c0 152 104 247 235 247zM270 1c109 0 198 89 198 235s-89 235 -198 235c-110 0 -199 -89 -199 -235s89 -235 199 -235zM251 665c13 -12 9 -25 -11 -43c-43 -37 -61 -51 -92 -76
c-7 -6 -12 -8 -16 -5c-3 4 -2 9 4 17c24 31 38 49 73 94c17 21 29 26 42 13zM396 665c13 -12 9 -25 -12 -43c-43 -37 -60 -51 -91 -76c-7 -6 -12 -8 -16 -5c-4 4 -2 9 4 17c24 31 37 49 72 94c17 21 30 26 43 13z" />
    <glyph glyph-name="omacron" unicode="&#x14d;" horiz-adv-x="554" 
d="M270 483c130 0 234 -95 234 -247c0 -151 -104 -246 -234 -246c-131 0 -235 95 -235 246c0 152 104 247 235 247zM270 1c109 0 198 89 198 235s-89 235 -198 235c-110 0 -199 -89 -199 -235s89 -235 199 -235zM127 619h284v-12h-284v12z" />
    <glyph glyph-name="oslashacute" unicode="&#x1ff;" horiz-adv-x="554" 
d="M505 463l-58 -58c35 -42 57 -100 57 -168c0 -152 -104 -247 -234 -247c-67 0 -127 24 -169 69l-58 -58l-8 9l58 58c-36 42 -58 100 -58 169c0 151 104 246 235 246c66 0 126 -24 168 -69l58 58zM71 237c0 -61 16 -111 41 -150l308 309c-36 48 -90 76 -150 76
c-110 0 -199 -90 -199 -235zM468 237c0 60 -15 110 -41 149l-308 -309c36 -48 90 -75 151 -75c109 0 198 89 198 235zM199 577c32 23 51 36 98 68c22 15 36 15 44 -1c9 -15 1 -27 -24 -37c-52 -22 -73 -30 -110 -45c-9 -3 -14 -4 -17 1c-2 5 1 8 9 14z" />
    <glyph glyph-name="otilde" unicode="&#xf5;" horiz-adv-x="554" 
d="M270 483c130 0 234 -95 234 -247c0 -151 -104 -246 -234 -246c-131 0 -235 95 -235 246c0 152 104 247 235 247zM270 1c109 0 198 89 198 235s-89 235 -198 235c-110 0 -199 -89 -199 -235s89 -235 199 -235zM196 650c28 0 54 -10 87 -25c30 -13 54 -28 81 -28
c30 0 47 24 54 51h11c-9 -62 -39 -80 -81 -80c-26 0 -61 16 -96 31c-28 11 -47 17 -71 17s-47 -15 -61 -43h-11c10 57 40 77 87 77z" />
    <glyph glyph-name="racute" unicode="&#x155;" horiz-adv-x="388" 
d="M363 433c9 -21 3 -40 -12 -44c-14 -3 -29 3 -29 28c-1 33 -27 56 -76 52c-63 -5 -127 -73 -127 -205v-203c0 -34 2 -50 34 -52v-9h-103v9c32 2 34 18 34 52v341c0 34 -2 50 -34 53v9l60 19h9v-124c23 74 70 123 142 124c44 2 88 -19 102 -50zM129 577c32 23 51 36 98 68
c22 15 36 15 44 -1c9 -15 1 -27 -24 -37c-52 -22 -73 -30 -110 -45c-9 -3 -14 -4 -17 1c-2 5 1 8 9 14z" />
    <glyph glyph-name="rcaron" unicode="&#x159;" horiz-adv-x="388" 
d="M363 433c9 -21 3 -40 -12 -44c-14 -3 -29 3 -29 28c-1 33 -27 56 -76 52c-63 -5 -127 -73 -127 -205v-203c0 -34 2 -50 34 -52v-9h-103v9c32 2 34 18 34 52v341c0 34 -2 50 -34 53v9l60 19h9v-124c23 74 70 123 142 124c44 2 88 -19 102 -50zM351 677l4 -7l-135 -122h-22
l-136 122l5 7l142 -95z" />
    <glyph glyph-name="rcommaaccent" unicode="&#x157;" horiz-adv-x="388" 
d="M363 433c9 -21 3 -40 -12 -44c-14 -3 -29 3 -29 28c-1 33 -27 56 -76 52c-63 -5 -127 -73 -127 -205v-203c0 -34 2 -50 34 -52v-9h-103v9c32 2 34 18 34 52v341c0 34 -2 50 -34 53v9l60 19h9v-124c23 74 70 123 142 124c44 2 88 -19 102 -50zM99 -100c19 0 35 -15 35 -39
c2 -54 -46 -122 -70 -140l-10 10c35 35 49 71 51 100h-6c-19 0 -35 13 -35 35c0 21 16 34 35 34z" />
    <glyph glyph-name="sacute" unicode="&#x15b;" horiz-adv-x="450" 
d="M100 407c-32 -100 65 -125 146 -154c80 -28 174 -60 149 -158c-19 -75 -92 -111 -186 -105c-59 4 -125 27 -169 58v75h7c21 -84 93 -115 164 -121c56 -4 134 8 156 80c26 88 -63 113 -135 137c-85 28 -192 64 -156 181c17 55 86 86 150 84c50 -1 106 -19 150 -53l1 -69
h-7c-23 84 -90 110 -151 110c-44 0 -104 -21 -119 -65zM150 577c32 23 51 36 98 68c22 15 36 15 44 -1c9 -15 1 -27 -24 -37c-52 -22 -73 -30 -110 -45c-9 -3 -14 -4 -17 1c-2 5 1 8 9 14z" />
    <glyph glyph-name="scaron" unicode="&#x161;" horiz-adv-x="450" 
d="M100 407c-32 -100 65 -125 146 -154c80 -28 174 -60 149 -158c-19 -75 -92 -111 -186 -105c-59 4 -125 27 -169 58v75h7c21 -84 93 -115 164 -121c56 -4 134 8 156 80c26 88 -63 113 -135 137c-85 28 -192 64 -156 181c17 55 86 86 150 84c50 -1 106 -19 150 -53l1 -69
h-7c-23 84 -90 110 -151 110c-44 0 -104 -21 -119 -65zM362 677l4 -7l-135 -122h-22l-136 122l5 7l142 -95z" />
    <glyph glyph-name="scircumflex" unicode="&#x15d;" horiz-adv-x="450" 
d="M100 407c-32 -100 65 -125 146 -154c80 -28 174 -60 149 -158c-19 -75 -92 -111 -186 -105c-59 4 -125 27 -169 58v75h7c21 -84 93 -115 164 -121c56 -4 134 8 156 80c26 88 -63 113 -135 137c-85 28 -192 64 -156 181c17 55 86 86 150 84c50 -1 106 -19 150 -53l1 -69
h-7c-23 84 -90 110 -151 110c-44 0 -104 -21 -119 -65zM230 677l136 -122l-5 -7l-142 95l-141 -95l-5 7l135 122h22z" />
    <glyph glyph-name="scommaaccent" unicode="&#x219;" horiz-adv-x="450" 
d="M100 407c-32 -100 65 -125 146 -154c80 -28 174 -60 149 -158c-19 -75 -92 -111 -186 -105c-59 4 -125 27 -169 58v75h7c21 -84 93 -115 164 -121c56 -4 134 8 156 80c26 88 -63 113 -135 137c-85 28 -192 64 -156 181c17 55 86 86 150 84c50 -1 106 -19 150 -53l1 -69
h-7c-23 84 -90 110 -151 110c-44 0 -104 -21 -119 -65zM224 -100c19 0 35 -15 35 -39c2 -54 -46 -122 -70 -140l-10 10c35 35 49 71 51 100h-6c-19 0 -35 13 -35 35c0 21 16 34 35 34z" />
    <glyph glyph-name="tcaron" unicode="&#x165;" horiz-adv-x="328" 
d="M283 38l5 -5c-14 -19 -41 -43 -80 -43c-58 0 -99 35 -99 126v345h-79v12c73 6 100 33 102 118h12v-118h125v-12h-125v-345c0 -62 22 -95 55 -105c29 -8 62 1 84 27zM273 710c19 0 35 -15 35 -39c2 -54 -46 -122 -70 -140l-10 10c35 35 50 71 51 100h-6
c-19 0 -35 13 -35 35s16 34 35 34z" />
    <glyph glyph-name="tcommaaccent" unicode="&#x163;" horiz-adv-x="328" 
d="M283 38l5 -5c-14 -19 -41 -43 -80 -43c-58 0 -99 35 -99 126v345h-79v12c73 6 100 33 102 118h12v-118h125v-12h-125v-345c0 -62 22 -95 55 -105c29 -8 62 1 84 27zM139 -100c19 0 35 -15 35 -39c2 -54 -46 -122 -70 -140l-10 10c35 35 49 71 51 100h-6
c-19 0 -35 13 -35 35c0 21 16 34 35 34z" />
    <glyph glyph-name="uacute" unicode="&#xfa;" horiz-adv-x="546" 
d="M452 61c0 -34 2 -50 34 -52v-9h-68v86c-25 -54 -78 -97 -158 -97c-108 0 -195 65 -195 198v215c0 34 -2 50 -35 53v9l60 19h9v-291c0 -107 53 -190 168 -190c83 0 151 64 151 144v256c0 34 -3 50 -35 53v9l60 19h9v-422zM188 577c32 23 51 36 98 68c22 15 36 15 44 -1
c9 -15 1 -27 -24 -37c-52 -22 -73 -30 -110 -45c-9 -3 -14 -4 -17 1c-2 5 1 8 9 14z" />
    <glyph glyph-name="ubreve" unicode="&#x16d;" horiz-adv-x="546" 
d="M452 61c0 -34 2 -50 34 -52v-9h-68v86c-25 -54 -78 -97 -158 -97c-108 0 -195 65 -195 198v215c0 34 -2 50 -35 53v9l60 19h9v-291c0 -107 53 -190 168 -190c83 0 151 64 151 144v256c0 34 -3 50 -35 53v9l60 19h9v-422zM369 663l8 -2c-7 -50 -53 -95 -119 -95
c-65 0 -111 45 -119 95l9 2c16 -44 52 -67 110 -67c59 0 94 23 111 67z" />
    <glyph glyph-name="ucircumflex" unicode="&#xfb;" horiz-adv-x="546" 
d="M452 61c0 -34 2 -50 34 -52v-9h-68v86c-25 -54 -78 -97 -158 -97c-108 0 -195 65 -195 198v215c0 34 -2 50 -35 53v9l60 19h9v-291c0 -107 53 -190 168 -190c83 0 151 64 151 144v256c0 34 -3 50 -35 53v9l60 19h9v-422zM268 677l136 -122l-5 -7l-142 95l-141 -95l-5 7
l135 122h22z" />
    <glyph glyph-name="udieresis" unicode="&#xfc;" horiz-adv-x="546" 
d="M452 61c0 -34 2 -50 34 -52v-9h-68v86c-25 -54 -78 -97 -158 -97c-108 0 -195 65 -195 198v215c0 34 -2 50 -35 53v9l60 19h9v-291c0 -107 53 -190 168 -190c83 0 151 64 151 144v256c0 34 -3 50 -35 53v9l60 19h9v-422zM188 651c19 0 35 -13 35 -35s-16 -35 -35 -35
s-36 13 -36 35s17 35 36 35zM329 651c19 0 35 -13 35 -35s-16 -35 -35 -35s-35 13 -35 35s16 35 35 35z" />
    <glyph glyph-name="uhungarumlaut" unicode="&#x171;" horiz-adv-x="546" 
d="M452 61c0 -34 2 -50 34 -52v-9h-68v86c-25 -54 -78 -97 -158 -97c-108 0 -195 65 -195 198v215c0 34 -2 50 -35 53v9l60 19h9v-291c0 -107 53 -190 168 -190c83 0 151 64 151 144v256c0 34 -3 50 -35 53v9l60 19h9v-422zM270 665c13 -12 9 -25 -11 -43
c-43 -37 -61 -51 -92 -76c-7 -6 -12 -8 -16 -5c-3 4 -2 9 4 17c24 31 38 49 73 94c17 21 29 26 42 13zM415 665c13 -12 9 -25 -12 -43c-43 -37 -60 -51 -91 -76c-7 -6 -12 -8 -16 -5c-4 4 -2 9 4 17c24 31 37 49 72 94c17 21 30 26 43 13z" />
    <glyph glyph-name="ugrave" unicode="&#xf9;" horiz-adv-x="546" 
d="M452 61c0 -34 2 -50 34 -52v-9h-68v86c-25 -54 -78 -97 -158 -97c-108 0 -195 65 -195 198v215c0 34 -2 50 -35 53v9l60 19h9v-291c0 -107 53 -190 168 -190c83 0 151 64 151 144v256c0 34 -3 50 -35 53v9l60 19h9v-422zM327 577c8 -6 12 -9 9 -14s-8 -4 -17 -1
c-37 15 -58 23 -110 45c-25 10 -32 22 -24 37c8 16 22 16 44 1c48 -32 66 -45 98 -68z" />
    <glyph glyph-name="umacron" unicode="&#x16b;" horiz-adv-x="546" 
d="M452 61c0 -34 2 -50 34 -52v-9h-68v86c-25 -54 -78 -97 -158 -97c-108 0 -195 65 -195 198v215c0 34 -2 50 -35 53v9l60 19h9v-291c0 -107 53 -190 168 -190c83 0 151 64 151 144v256c0 34 -3 50 -35 53v9l60 19h9v-422zM116 619h284v-12h-284v12z" />
    <glyph glyph-name="uring" unicode="&#x16f;" horiz-adv-x="546" 
d="M452 61c0 -34 2 -50 34 -52v-9h-68v86c-25 -54 -78 -97 -158 -97c-108 0 -195 65 -195 198v215c0 34 -2 50 -35 53v9l60 19h9v-291c0 -107 53 -190 168 -190c83 0 151 64 151 144v256c0 34 -3 50 -35 53v9l60 19h9v-422zM267 740c53 0 100 -41 100 -97
c0 -55 -47 -96 -100 -96c-52 0 -99 41 -99 96c0 56 47 97 99 97zM267 556c43 0 74 36 74 87s-31 88 -74 88c-42 0 -73 -37 -73 -88s31 -87 73 -87z" />
    <glyph glyph-name="utilde" unicode="&#x169;" horiz-adv-x="546" 
d="M452 61c0 -34 2 -50 34 -52v-9h-68v86c-25 -54 -78 -97 -158 -97c-108 0 -195 65 -195 198v215c0 34 -2 50 -35 53v9l60 19h9v-291c0 -107 53 -190 168 -190c83 0 151 64 151 144v256c0 34 -3 50 -35 53v9l60 19h9v-422zM195 660c28 0 54 -10 87 -25
c30 -13 54 -28 81 -28c30 0 47 24 54 51h11c-9 -62 -39 -80 -81 -80c-26 0 -61 16 -96 31c-28 11 -47 17 -71 17s-47 -15 -61 -43h-11c10 57 40 77 87 77z" />
    <glyph glyph-name="wacute" unicode="&#x1e83;" horiz-adv-x="750" 
d="M653 473h67v-9c-27 -2 -36 -18 -45 -39l-161 -425h-12l-135 416l-152 -416h-11l-156 435c-7 16 -16 26 -38 29v9h94v-9c-21 -2 -26 -16 -19 -36l135 -383l155 428h6l138 -429l145 384c7 19 9 34 -11 36v9zM315 577c32 23 51 36 98 68c22 15 36 15 44 -1
c9 -15 1 -27 -24 -37c-52 -22 -73 -30 -110 -45c-9 -3 -14 -4 -17 1c-2 5 1 8 9 14z" />
    <glyph glyph-name="wcircumflex" unicode="&#x175;" horiz-adv-x="750" 
d="M653 473h67v-9c-27 -2 -36 -18 -45 -39l-161 -425h-12l-135 416l-152 -416h-11l-156 435c-7 16 -16 26 -38 29v9h94v-9c-21 -2 -26 -16 -19 -36l135 -383l155 428h6l138 -429l145 384c7 19 9 34 -11 36v9zM385 677l136 -122l-5 -7l-142 95l-141 -95l-5 7l135 122h22z" />
    <glyph glyph-name="wdieresis" unicode="&#x1e85;" horiz-adv-x="750" 
d="M653 473h67v-9c-27 -2 -36 -18 -45 -39l-161 -425h-12l-135 416l-152 -416h-11l-156 435c-7 16 -16 26 -38 29v9h94v-9c-21 -2 -26 -16 -19 -36l135 -383l155 428h6l138 -429l145 384c7 19 9 34 -11 36v9zM305 651c19 0 35 -13 35 -35s-16 -35 -35 -35s-36 13 -36 35
s17 35 36 35zM446 651c19 0 35 -13 35 -35s-16 -35 -35 -35s-35 13 -35 35s16 35 35 35z" />
    <glyph glyph-name="wgrave" unicode="&#x1e81;" horiz-adv-x="750" 
d="M653 473h67v-9c-27 -2 -36 -18 -45 -39l-161 -425h-12l-135 416l-152 -416h-11l-156 435c-7 16 -16 26 -38 29v9h94v-9c-21 -2 -26 -16 -19 -36l135 -383l155 428h6l138 -429l145 384c7 19 9 34 -11 36v9zM424 577c8 -6 12 -9 9 -14s-8 -4 -17 -1c-37 15 -58 23 -110 45
c-25 10 -32 22 -24 37c8 16 22 16 44 1c48 -32 66 -45 98 -68z" />
    <glyph glyph-name="yacute" unicode="&#xfd;" horiz-adv-x="490" 
d="M393 473h67v-9c-26 -2 -34 -18 -43 -39l-171 -425c-66 -151 -103 -203 -167 -212c-24 -3 -56 1 -75 16c-16 14 -19 35 -5 45c15 9 30 -1 34 -20c4 -24 29 -30 56 -25c48 7 92 71 145 198l-179 419c-10 23 -19 40 -46 43v9h93v-9c-21 -2 -24 -17 -16 -36l165 -385l156 387
c7 18 6 32 -14 34v9zM175 577c32 23 51 36 98 68c22 15 36 15 44 -1c9 -15 1 -27 -24 -37c-52 -22 -73 -30 -110 -45c-9 -3 -14 -4 -17 1c-2 5 1 8 9 14z" />
    <glyph glyph-name="ycircumflex" unicode="&#x177;" horiz-adv-x="490" 
d="M393 473h67v-9c-26 -2 -34 -18 -43 -39l-171 -425c-66 -151 -103 -203 -167 -212c-24 -3 -56 1 -75 16c-16 14 -19 35 -5 45c15 9 30 -1 34 -20c4 -24 29 -30 56 -25c48 7 92 71 145 198l-179 419c-10 23 -19 40 -46 43v9h93v-9c-21 -2 -24 -17 -16 -36l165 -385l156 387
c7 18 6 32 -14 34v9zM255 677l136 -122l-5 -7l-142 95l-141 -95l-5 7l135 122h22z" />
    <glyph glyph-name="ydieresis" unicode="&#xff;" horiz-adv-x="490" 
d="M393 473h67v-9c-26 -2 -34 -18 -43 -39l-171 -425c-66 -151 -103 -203 -167 -212c-24 -3 -56 1 -75 16c-16 14 -19 35 -5 45c15 9 30 -1 34 -20c4 -24 29 -30 56 -25c48 7 92 71 145 198l-179 419c-10 23 -19 40 -46 43v9h93v-9c-21 -2 -24 -17 -16 -36l165 -385l156 387
c7 18 6 32 -14 34v9zM182 651c19 0 35 -13 35 -35s-16 -35 -35 -35s-36 13 -36 35s17 35 36 35zM323 651c19 0 35 -13 35 -35s-16 -35 -35 -35s-35 13 -35 35s16 35 35 35z" />
    <glyph glyph-name="ygrave" unicode="&#x1ef3;" horiz-adv-x="490" 
d="M393 473h67v-9c-26 -2 -34 -18 -43 -39l-171 -425c-66 -151 -103 -203 -167 -212c-24 -3 -56 1 -75 16c-16 14 -19 35 -5 45c15 9 30 -1 34 -20c4 -24 29 -30 56 -25c48 7 92 71 145 198l-179 419c-10 23 -19 40 -46 43v9h93v-9c-21 -2 -24 -17 -16 -36l165 -385l156 387
c7 18 6 32 -14 34v9zM324 577c8 -6 12 -9 9 -14s-8 -4 -17 -1c-37 15 -58 23 -110 45c-25 10 -32 22 -24 37c8 16 22 16 44 1c48 -32 66 -45 98 -68z" />
    <glyph glyph-name="zacute" unicode="&#x17a;" horiz-adv-x="467" 
d="M408 80h9l-13 -80h-364v12l318 449h-179c-72 0 -92 -20 -107 -68h-9l14 80h318v-12l-318 -449h225c72 0 91 20 106 68zM178 577c32 23 51 36 98 68c22 15 36 15 44 -1c9 -15 1 -27 -24 -37c-52 -22 -73 -30 -110 -45c-9 -3 -14 -4 -17 1c-2 5 1 8 9 14z" />
    <glyph glyph-name="zcaron" unicode="&#x17e;" horiz-adv-x="467" 
d="M408 80h9l-13 -80h-364v12l318 449h-179c-72 0 -92 -20 -107 -68h-9l14 80h318v-12l-318 -449h225c72 0 91 20 106 68zM391 677l4 -7l-135 -122h-22l-136 122l5 7l142 -95z" />
    <glyph glyph-name="zdotaccent" unicode="&#x17c;" horiz-adv-x="467" 
d="M408 80h9l-13 -80h-364v12l318 449h-179c-72 0 -92 -20 -107 -68h-9l14 80h318v-12l-318 -449h225c72 0 91 20 106 68zM248 651c19 0 35 -13 35 -35s-16 -35 -35 -35s-35 13 -35 35s16 35 35 35z" />
    <glyph glyph-name="Eth" unicode="&#xd0;" horiz-adv-x="717" 
d="M285 700c200 0 387 -106 387 -350s-187 -350 -387 -350h-220v9c32 2 34 18 34 53v285h-34v12h34v279c0 34 -2 50 -34 53v9h220zM278 12c205 0 357 106 357 338c0 231 -152 337 -357 337h-144v-328h208v-12h-208v-335h144z" />
    <glyph glyph-name="fraction" unicode="&#x2044;" horiz-adv-x="398" 
d="M319 700h14l-254 -700h-14z" />
    <glyph glyph-name="A" unicode="A" horiz-adv-x="665" 
d="M593 62c13 -30 25 -49 52 -53v-9h-108v9c26 4 34 20 20 53l-76 180h-331l-68 -180c-12 -32 -7 -49 20 -53v-9h-82v9c26 5 36 18 48 47l220 582c11 30 15 50 -13 53v9h50zM155 254h321l-169 402z" />
    </font>
</defs>
</svg>
