<svg width="28" height="24" viewBox="0 0 28 24" fill="none" xmlns="http://www.w3.org/2000/svg">
<g clip-path="url(#clip0_1_224)">
<path d="M17.0256 6.12061C17.575 7.36403 17.883 8.73737 17.883 10.1775C17.883 15.8379 13.2731 20.4145 7.64612 20.4145H6.79242V24H26.6576C26.9619 24 27.2106 23.7513 27.2106 23.4469V16.3575C27.2106 10.7454 22.66 6.1503 17.0256 6.12061Z" fill="#005AFF"/>
<path d="M6.79245 16.3576C6.79245 10.7269 11.3727 6.12063 16.9737 6.12063C16.9923 6.12063 17.0071 6.12063 17.0257 6.12063C15.4408 2.52768 11.8218 0 7.64244 0H0.523353C0.233839 0 0 0.233839 0 0.523353V4.13486V19.8614V23.4432C0 23.7365 0.233839 23.9963 0.553047 23.9963H6.79245V20.4108V16.3576Z" fill="#FF5A00"/>
<path d="M6.79242 16.3575V20.4145H7.6424C13.2731 20.4145 17.8793 15.8342 17.8793 10.1775C17.8793 8.73737 17.5713 7.36403 17.0219 6.12061C17.0034 6.12061 16.9885 6.12061 16.97 6.12061C11.3727 6.12061 6.79242 10.7306 6.79242 16.3575Z" fill="#AA3C00"/>
</g>
<defs>
<clipPath id="clip0_1_224">
<rect width="27.2106" height="24" fill="white"/>
</clipPath>
</defs>
</svg>
